<svg xmlns="http://www.w3.org/2000/svg" viewBox="0 0 720 720"><defs><style>.cls-1{fill:#000082;}.cls-2{fill:#0cdbe5;}.cls-3{fill:#36bfbb;}.cls-4{fill:#bfe4e8;}.cls-5{fill:#4fe0dc;}.cls-6{fill:#56d0ed;}.cls-7{fill:#fff;}.cls-8{fill:#9e9e9e;}</style></defs><g id="Text"><path class="cls-1" d="M155.42,185h372c.57,0,.26.92.24,1.28l-.11,1.87a5.28,5.28,0,0,0,.1,1.86,4.93,4.93,0,0,0,1.59,2.17,19.64,19.64,0,0,0,3.63,2.8,2.7,2.7,0,0,1,.66.38,5.75,5.75,0,0,1,1,2.43,11.41,11.41,0,0,1,.24,5.77,13.87,13.87,0,0,1-3.55,5.9c-3.17,3.44-7.07,6.12-10.59,9.2a34.53,34.53,0,0,0-4.8,5,16.47,16.47,0,0,0-3.18,6.09,21.62,21.62,0,0,1-1,2.55l-1.36,1.57-.73,1.36h1l2.89,0,4.36-.05,5.49-.07,6.25-.07,6.66-.07,6.7-.08,6.39-.07,5.71-.07,4.68,0,3.29,0h1.34c.08,0,.24,0,.22.09a5.55,5.55,0,0,0-.21,1.34,3.87,3.87,0,0,1-.42,2.52c-.5.88-.47,1.56-.89,2.16a5.62,5.62,0,0,0-.61,1.13c-.47,1.27-1,2.53-1.49,3.78-1.05,2.47-2.21,4.9-3.48,7.27a2.12,2.12,0,0,0-.11.21,11.45,11.45,0,0,1-2.81,3.74c-2.58,2-6.43,1.7-8.92,3.81a10.73,10.73,0,0,0-2.33,3.26,78.23,78.23,0,0,0-5.23,12.29c-1,3.1-1.87,6.3-3.57,9.08a39.73,39.73,0,0,1-4.21,5.29,29.72,29.72,0,0,1-2.61,3c-.27.23-.57.42-.82.67a7.48,7.48,0,0,0-1.45,2.95,24.59,24.59,0,0,0-1.07,7.33c0,1.35,0,2.71.06,4.06.2,5.06.5,10.38-1.7,14.95a29.45,29.45,0,0,1-5,6.75c-2.27,2.49-4.54,5-7,7.26-2.82,2.56-5.93,4.82-8.53,7.6A35.75,35.75,0,0,0,494.93,357a51.93,51.93,0,0,0-2,6.77c-.28,1.29-.53,2.59-.73,3.9a22.62,22.62,0,0,0-.06,5.07c.05.38.08.77.12,1.15a40.08,40.08,0,0,1,.1,4.9,39.59,39.59,0,0,1-1.6,9.78,12.61,12.61,0,0,1-2.48,5c-1.92,2.13-4.84,3-7.46,4.13-4.58,2-8.5,5.28-12.35,8.48-2.66,2.2-5.4,4.52-6.75,7.69-1.62,3.78-1,8.31-3,11.9-2.09,3.76-6.61,5.78-8.38,9.7a16.12,16.12,0,0,0-1.07,4.16l-1.82,11.06a27.09,27.09,0,0,1-1.81,7c-2.3,5-7.61,8.58-8.31,14-.6,4.68,2.49,9.37,1.44,14a30.56,30.56,0,0,0-.91,3.47c-.25,2.38,1.28,5,2.34,7.12a52.06,52.06,0,0,1,2.17,5A51.49,51.49,0,0,1,445,511.67c.42,2.82.59,5.9-.57,8.57-.49,1.14-1.52,1.73-2,2.91a9.5,9.5,0,0,0-.67,5.81,7.93,7.93,0,0,1,.18,2.87c-.17,1-.58,2.32-1.58,2.55a12,12,0,0,1-3,.14H421.49l-1.68,0h-7.2l-1.92,0h-6l-2.08,0h-2.12l-2.16,0h-2.19l-2.23,0h-4.55l-2.33,0-2.35,0h-2.39l-2.41,0h-2.44l-2.46,0-2.49,0H370l-2.54,0H364.9l-2.57,0-2.58,0-2.61,0h-2.62l-2.63,0-2.65,0h-2.65l-2.67,0-2.68,0-2.69,0h-2.69l-2.7,0-2.7,0-2.7,0-2.71,0h-2.71l-2.7,0-2.71,0-2.7,0h-2.7l-2.69,0-2.69,0-2.67,0h-2.67l-2.66,0-2.65,0-2.63,0h-2.62l-2.6,0-2.59,0h-2.57l-2.55,0-2.53,0H274.9l-2.49,0-2.46,0h-2.44l-2.41,0h-2.39l-2.35,0H258l-2.29,0h-2.27l-2.22,0h-2.2l-2.16,0h-4.2l-2,0h-4l-1.92,0H205c-.14,0-.45,1-.45,1l-.35-1-.29,1-.2-1h-.17l0-4.13,0-10.26.06-13.19.06-12.94,0-9.5a5.48,5.48,0,0,1,.08-1.28,1.43,1.43,0,0,0-.09-.91,4.18,4.18,0,0,0-1.54-2,6,6,0,0,0-3.49-.7,20.39,20.39,0,0,0-7,1.51,10.21,10.21,0,0,1-1.52.55,6.1,6.1,0,0,1-1.81.07,13.87,13.87,0,0,1-2.86-.53,9.54,9.54,0,0,0-2.77-.6c-1.46,0-2.75,1-4.18,1.22a4.79,4.79,0,0,1-3.09-.45c-1.43-.75-2.32-2.1-3.49-3.14a8.3,8.3,0,0,1-2.27-3.47A42,42,0,0,1,167.5,462c-.12-2.2.05-4.34.05-6.55l.2-8.79.24-10.24.27-11.41.29-12.28.3-12.9.31-13.23.32-13.29.3-13.06.3-12.57.27-11.79.26-10.73.22-9.41L171,308l.14-5.91.09-3.76,0-1.31Z"/><polygon class="cls-2" points="514.2 306.72 457.16 326.68 390.34 458.82 514.2 306.72"/><polygon class="cls-3" points="436.3 332.31 358 346.29 357.17 492.77 436.3 332.31"/><polygon class="cls-4" points="473.88 268.25 509.93 294.31 449.09 312.64 443 294.94 473.88 268.25"/><polygon class="cls-5" points="431.01 296.36 437.09 318.56 358.35 329.85 357.71 308.82 431.01 296.36"/><polygon class="cls-3" points="182.7 306.72 239.75 326.68 306.56 458.82 182.7 306.72"/><polygon class="cls-2" points="260.7 332.31 339 346.29 339.83 492.77 260.7 332.31"/><polygon class="cls-5" points="223.02 268.25 186.98 294.31 247.81 312.64 253.9 294.94 223.02 268.25"/><polygon class="cls-4" points="265.89 296.36 259.81 318.56 338.55 329.85 339.19 308.82 265.89 296.36"/><path class="cls-6" d="M348.51,293.33a1.93,1.93,0,0,1-.34,0L263.62,281.9,240,261.51l21.67-12.81,38.67-5.7h48l-.06,1h46.36L435,248.72l21.67,12.81-22.12,20.23-84.61,11.43-1.61.17"/><polygon class="cls-7" points="292.86 268.75 263.01 262.68 277.19 289.64 260.38 264.24 251.33 293.33 257.41 263.48 230.44 277.66 255.85 260.85 226.76 251.8 256.61 257.88 242.43 230.91 259.24 256.32 268.29 227.23 262.21 257.08 289.17 242.9 263.77 259.71 292.86 268.75"/><path class="cls-7" d="M252.53,293.7l-2.42-.62,5.55-27.27L231,278.76l-1.27-2.14L253,261.26,226.39,253l.62-2.42,27.26,5.55-13-24.63,2.15-1.28,15.36,23.21,8.26-26.57,2.42.62L264,254.74l24.63-13,1.27,2.15-23.2,15.36,26.57,8.26-.62,2.42-27.27-5.55,13,24.63-2.14,1.27-15.36-23.2Zm6.63-32.55-1.65,8.11,2.45-7.9,4.57,6.9-3.85-7.33,8.11,1.65-7.9-2.45,6.9-4.57-7.33,3.85,1.65-8.11-2.45,7.9-4.57-6.9,3.85,7.33L250.83,258l7.9,2.45-6.9,4.57Z"/><path d="M612,145v16.67s6.1.24,9.86.24a34,34,0,0,0,5.2-.56c.49,0,.65.24.65.56,0,1.28-2.24,3-5.85,3a76.51,76.51,0,0,1-9.86-.56V176h3.94a75.32,75.32,0,0,0,11.77.15,13.14,13.14,0,0,0,3.12-.4,50.75,50.75,0,0,0,2.07-8.56c.41-2.08.73-2.48,1.28-2.48,1.13,0,2.17,1.68,2.17,4.4,0,4.48-1.68,8.72-5.52,9.36a143.69,143.69,0,0,1-16.33.8c-11.52,0-12.4-.16-12.4-1.44,0-1,2.88-.83,2.88-.83h1.76c.41-10.61.41-21.31.08-32.08-5.92-.33-6.58-.58-6.58-1.32,0-1,1.4-1.4,3.29-1.4,3.78,0,16.53.25,22,.41.33-3.29.66-4.19,1.48-4.19,1,0,2.14,2.14,2.72,7.81.08.74.16,1.9.16,2.55,0,2.64-1.15,4.36-2.3,4.36-1,0-1.56-1.39-2-7.73-4.69-.25-8.64-.33-12.84-.41Z"/><path d="M497.52,178.56c-2.16-.24-2.32-.56-2.32-1,0-1.2,1.84-1.6,4.64-1.6H504c0-10.4.08-20.16.08-30.72-3.84,0-7.68.08-11.12.16-.24,2.4-.32,6-.64,8.08-.24,1.68-.4,2.8-1.44,2.8-1.2,0-2.24-1.2-2.24-4.16,0-6,1.2-13.68,2.8-13.68.88,0,1.44,1.2,1.68,4.32,4.48-.16,9.76-.24,15-.24,3.84,0,7.12.08,10.4.16.16-3.2.64-4.4,1.44-4.4.64,0,1.2.72,1.68,4.48,1.84.16,2.08.64,2.08,1.12a2.44,2.44,0,0,1-1.68,2c.32,4.08.4,5.68.4,6.4,0,2.48-.8,4.48-2.24,4.48-.64,0-1-.56-1.12-1.92a67.79,67.79,0,0,1-.56-8.8,91.88,91.88,0,0,0-9.76-.72c.16,11,.16,7.6.24,19.28,0,5.2-.4,9.2-1.44,11.36,3.84-.08,7.76-.16,9.12-.16,1.12,0,1.36.32,1.36.88,0,1-2.16,2.32-6.56,2.32C505,179,499.28,178.72,497.52,178.56Z"/><path d="M548.15,178.56c-2.16-.24-2.32-.56-2.32-1,0-1.2,1.84-1.6,4.64-1.6h2.88c-.88-2.4-2.08-5.36-3.36-8.56-3.92.24-8.24.32-12.72.32a8,8,0,0,1-4.4-.88c-1.12,3.12-2.24,6.32-3.2,9.36,1.36.08,2.8.08,4.16.08,2.08,0,3.44-.4,4.64-.4.64,0,1.52.4,1.52,1,0,1.12-2.24,2.24-7.12,2.24-6.8,0-10-1-10-2.08,0-.56.88-1.12,2.32-1.12h1.2c3.76-10.48,8.24-21.28,11.28-28.48,1-2.32,1.76-3.52,2.48-3.92-.48-3.6.4-5.68,1.6-5.68.48,0,.88.4,1.28,1.2.48,1,.88,2.48,1.28,3.36,5.76,12,9.76,21.6,14.64,33.44,1.52-.08,2.88-.08,3.77-.08,1.11,0,1.35.32,1.35.88,0,1-2.16,2.24-6.56,2.24C554,179,549.91,178.72,548.15,178.56Zm-14.48-13.4c1.2-.08,3.2-.16,6.72-.16h8.48c-2.4-5.84-5.2-12.4-7.92-18.4C538.63,152.2,536.07,158.68,533.67,165.16Z"/><path d="M570.52,178.56c-2.16-.24-2.32-.56-2.32-1,0-1.2,1.84-1.6,4.64-1.6H577c0-10.4.08-20.16.08-30.72-3.84,0-7.68.08-11.12.16-.24,2.4-.32,6-.64,8.08-.24,1.68-.4,2.8-1.44,2.8-1.2,0-2.24-1.2-2.24-4.16,0-6,1.2-13.68,2.8-13.68.88,0,1.44,1.2,1.68,4.32,4.48-.16,9.76-.24,15-.24,3.84,0,7.12.08,10.4.16.16-3.2.64-4.4,1.44-4.4.64,0,1.2.72,1.68,4.48,1.84.16,2.08.64,2.08,1.12a2.44,2.44,0,0,1-1.68,2c.32,4.08.4,5.68.4,6.4,0,2.48-.8,4.48-2.24,4.48-.64,0-1-.56-1.12-1.92a67.79,67.79,0,0,1-.56-8.8,91.88,91.88,0,0,0-9.76-.72c.16,11,.16,7.6.24,19.28,0,5.2-.4,9.2-1.44,11.36,3.84-.08,7.76-.16,9.12-.16,1.12,0,1.36.32,1.36.88,0,1-2.16,2.32-6.56,2.32C578,179,572.28,178.72,570.52,178.56Z"/><path d="M476.22,110.7c.37-5.38,2-9.5,4.12-9.5.88,0,1.38.75,1.38,2.5,0,1.25-.13,3.25-.13,5.75,0,10.62,1.75,12.62,1.75,18,0,4.62-1.87,7.62-3.87,7.62-2.5,0-3.38-2.12-3.38-20a75.38,75.38,0,0,0-12.5-1.12c-10.87,0-16.87,6.37-16.87,14.12s3.12,11.75,12.62,16.38l9.5,4.75c18.63,9.12,21.88,14.62,21.88,23.12,0,14.25-9.38,25.63-29.75,25.63-19.13,0-28.63-7.13-28.63-21.25,0-7.75,4.25-13.88,8.25-13.88a1.15,1.15,0,0,1,1.25,1.13c0,1.75-2,5.25-2,12.5,0,9,6.75,16.12,22.5,16.12,13.13,0,21-6.5,21-15.87,0-7.38-4.12-12-18.87-19.88L455.34,152c-10.25-5.5-15.12-11.5-15.12-22,0-11.88,9.62-20.75,24.37-20.75A44.24,44.24,0,0,1,476.22,110.7Z"/><path class="cls-7" d="M611,146v16.69s5.94.24,9.7.24a34.19,34.19,0,0,0,5.2-.56c.48,0,.64.24.64.56,0,1.28-2.24,3-5.84,3a71.9,71.9,0,0,1-9.7-.56V177h3.78a73.22,73.22,0,0,0,11.76.17,13.14,13.14,0,0,0,3.12-.4,50.47,50.47,0,0,0,2.08-8.56c.4-2.08.72-2.48,1.28-2.48,1.12,0,2.16,1.68,2.16,4.4,0,4.48-1.68,8.72-5.52,9.36a143.48,143.48,0,0,1-16.32.8c-11.52,0-12.4-.16-12.4-1.44,0-1,2.88-.85,2.88-.85h1.92c.41-10.61.41-21.31.08-32.08-5.92-.33-6.58-.58-6.58-1.32,0-1,1.4-1.4,3.29-1.4,3.78,0,16.53.25,22,.41.33-3.29.66-4.19,1.48-4.19,1,0,2.14,2.14,2.72,7.81.08.74.16,1.9.16,2.55,0,2.64-1.15,4.36-2.3,4.36-1,0-1.56-1.39-2-7.73-4.69-.25-8.64-.33-12.84-.41Z"/><path d="M613.34,180.79c-11.44,0-12.9-.08-12.9-1.94,0-1.37,3.38-1.85,3.38-1.85h1.1c.36-9.56.39-19.68.08-30.11-5.25-.29-6.39-.51-6.39-1.74,0-.69.48-1.86,3.68-1.86,3.61,0,15.4.23,20.91.39.27-2.53.58-4.05,1.88-4.05,1.91,0,2.76,4.36,3.13,8,.08.71.16,1.85.16,2.52,0,2.64-1.2,4.72-2.73,4.72s-2-1.7-2.38-7.52c-4.48-.22-8.29-.3-12-.37H611v15.2l1.15,0c2.46.08,5.51.19,8.55.19a20.79,20.79,0,0,0,4.11-.41,6,6,0,0,1,1.09-.15,1,1,0,0,1,1.14,1.06c0,1.67-2.55,3.46-6.34,3.46a90.8,90.8,0,0,1-9.7-.5V176h3.78a48.14,48.14,0,0,0,11.73.67,17,17,0,0,0,2.77-.31,53.67,53.67,0,0,0,2-8.25c.37-2,.73-2.88,1.77-2.88,1.54,0,2.66,2.06,2.66,4.9,0,4.28-1.56,9.12-5.94,9.85A145.48,145.48,0,0,1,613.34,180.79ZM603.82,177c-1.16.75-2.38,1.31-2.38,1.85,0,.8,1.78.94,11.9.94a140.45,140.45,0,0,0,16.23-.8c3.77-.62,5.11-5,5.11-8.86,0-2.41-.86-3.9-1.66-3.9-.13,0-.39,0-.79,2.07a49.7,49.7,0,0,1-2.11,8.66l-.08.19-.2.08a12.93,12.93,0,0,1-3.28.44c-2,.12-6.27.32-11.78.33H610V164.46l.54.07a81.48,81.48,0,0,0,9.75.54c3.38,0,5.15-1.54,5.15-2.37,0-.1-.39,0-1,.07a20.89,20.89,0,0,1-4.14.41c-2.94,0-5.9-.1-8.28-.18l-2-.07V146h1.25c3.71.07,7.53.15,12.07.39l.43,0,0,.43c.19,2.92.54,6.8,1.37,6.8s1.68-1.28,1.68-3.61c0-.61-.08-1.67-.15-2.34-.57-5.66-1.69-6.9-2.07-6.9s-.66,1-.91,3.5l0,.45h-.45c-5.11-.16-17.1-.39-20.68-.39-1.58,0-2.61.33-2.61.83.29.45,4,.66,5.72.75l.45,0v.44c.32,10.45.29,20.59-.08,30.15V177Z"/><path class="cls-7" d="M496.52,179.56c-2.16-.24-2.32-.56-2.32-1,0-1.2,1.84-1.6,4.64-1.6H503c0-10.4.08-20.16.08-30.72-3.84,0-7.68.08-11.12.16-.24,2.4-.32,6-.64,8.08-.24,1.68-.4,2.8-1.44,2.8-1.2,0-2.24-1.2-2.24-4.16,0-6,1.2-13.68,2.8-13.68.88,0,1.44,1.2,1.68,4.32,4.48-.16,9.76-.24,15-.24,3.84,0,7.12.08,10.4.16.16-3.2.64-4.4,1.44-4.4.64,0,1.2.72,1.68,4.48,1.84.16,2.08.64,2.08,1.12a2.44,2.44,0,0,1-1.68,2c.32,4.08.4,5.68.4,6.4,0,2.48-.8,4.48-2.24,4.48-.64,0-1-.56-1.12-1.92a67.79,67.79,0,0,1-.56-8.8,91.88,91.88,0,0,0-9.76-.72c.16,11,.16,7.6.24,19.28,0,5.2-.4,9.2-1.44,11.36,3.84-.08,7.76-.16,9.12-.16,1.12,0,1.36.32,1.36.88,0,1-2.16,2.32-6.56,2.32C504,180,498.28,179.72,496.52,179.56Z"/><path d="M510,181c-6.54,0-12.23-.32-14-.48h0c-1.87-.21-2.76-.48-2.76-1.46,0-1.86,2.75-2.1,5.14-2.1h3.66c0-5,0-9.87,0-14.74s0-9.86,0-15c-3.58,0-7.09.08-10.16.15-.08.89-.14,1.93-.2,2.93-.11,1.72-.21,3.49-.41,4.74-.24,1.72-.46,3.22-1.93,3.22-.64,0-2.74-.34-2.74-4.66s.83-14.18,3.3-14.18c1.49,0,1.94,2.1,2.14,4.3,4.25-.14,9.38-.22,14.5-.22,3.65,0,6.85.07,9.93.15.14-2.34.52-4.39,1.91-4.39,1.1,0,1.67,1.19,2.12,4.52,1.12.14,2.14.48,2.14,1.58a2.88,2.88,0,0,1-1.65,2.31c.33,4.31.37,5.54.37,6.09,0,3-1.08,5-2.74,5-1.34,0-1.53-1.6-1.62-2.36a68.22,68.22,0,0,1-.56-8.42c-1.93-.23-4.91-.56-8.75-.65,0,3.24.08,5.17.1,6.64.06,3.21.08,4.24.13,12.13,0,5.09-.39,8.66-1.18,10.84,3.74-.07,7.11-.14,8.36-.14.8,0,1.86.14,1.86,1.38S514.86,181,510,181Zm-13.9-1.46c1.76.15,7.54.48,14.18.48,4.33,0,6.2-1.22,6.2-1.84,0-.23,0-.38-.88-.38-1.36,0-5.18.07-9.31.16l-.84,0,.36-.74c1-2,1.42-5.64,1.42-11.24-.05-7.95-.07-9-.12-12.23,0-1.56-.07-3.62-.12-7.22v-.52h.53a95.53,95.53,0,0,1,10,.73l.45.05v.45a67.12,67.12,0,0,0,.57,8.81c.18,1.5.5,1.5.64,1.5,1,0,1.78-1.69,1.78-4,0-.88-.13-2.92-.41-6.42l0-.37.35-.14a2,2,0,0,0,1.39-1.55c0-.13,0-.48-1.66-.63l-.41,0-.05-.4c-.47-3.69-1-4.08-1.21-4.08s-.77.28-1,4l0,.49h-.49c-3.3-.08-6.7-.17-10.62-.17-5.43,0-10.85.09-15.28.25h-.49l0-.48c-.26-3.39-.87-3.89-1.21-3.89-.88,0-2.35,6.25-2.35,13.29,0,2.32.67,3.7,1.78,3.7.57,0,.72-.66,1-2.39.19-1.22.29-3,.4-4.69.07-1.2.15-2.44.25-3.44l.05-.45h.45c3.39-.08,7.35-.16,11.38-.16H503v.29c.15,5.3.13,10.4.11,15.48A82.79,82.79,0,0,0,504,177v1h-5.57c-3.68,0-4.23.7-4.23,1.11C494.23,179.19,494.48,179.4,496.11,179.58Z"/><path class="cls-7" d="M547,179.56c-2.16-.24-2.32-.56-2.32-1,0-1.2,1.84-1.6,4.64-1.6h2.88c-.88-2.4-2.08-5.36-3.36-8.56-3.92.24-8.24.32-12.72.32a8,8,0,0,1-4.4-.88c-1.12,3.12-2.24,6.32-3.2,9.36,1.36.08,2.8.08,4.16.08,2.08,0,3.44-.4,4.64-.4.64,0,1.52.4,1.52,1,0,1.12-2.24,2.24-7.12,2.24-6.8,0-10-1-10-2.08,0-.56.88-1.12,2.32-1.12h1.2c3.76-10.48,8.24-21.28,11.28-28.48,1-2.32,1.76-3.52,2.48-3.92-.48-3.6.4-5.68,1.6-5.68.48,0,.88.4,1.28,1.2.48,1,.88,2.48,1.28,3.36,5.76,12,9.76,21.6,14.64,33.44,1.52-.08,2.88-.08,3.76-.08,1.12,0,1.36.32,1.36.88,0,1-2.16,2.24-6.56,2.24C552.83,180,548.75,179.72,547,179.56Zm-14.48-13.4c1.2-.08,3.2-.16,6.72-.16h8.48c-2.4-5.84-5.2-12.4-7.92-18.4C537.47,153.2,534.91,159.68,532.51,166.16Z"/><path d="M531.71,181.2c-3.93,0-10.5-.34-10.5-2.58,0-.94,1.18-1.62,2.82-1.62h.84c3.76-10.42,8.17-21.06,11.17-28.18.87-2.09,1.64-3.37,2.41-4-.28-2.44,0-4.36.88-5.32a1.64,1.64,0,0,1,1.26-.62c.88,0,1.41.84,1.72,1.48a17.43,17.43,0,0,1,.77,2c.18.54.35,1,.52,1.41,5.58,11.63,9.55,21.1,14.51,33.13,1.39-.06,2.61-.06,3.44-.06s1.86.14,1.86,1.38-2.19,2.74-7.06,2.74c-3.63,0-7.7-.25-9.41-.4h0c-1.87-.21-2.76-.48-2.76-1.46,0-1.86,2.74-2.1,5.14-2.1h2.16c-.72-1.91-1.61-4.15-2.56-6.5l-.41-1c-3.45.2-7.51.3-12.39.3a10.14,10.14,0,0,1-4.13-.66c-.85,2.38-1.88,5.31-2.8,8.17,1.15,0,2.33,0,3.49,0a20.2,20.2,0,0,0,2.88-.24,14.54,14.54,0,0,1,1.76-.16c.84,0,2,.54,2,1.54C539.33,180.15,536.41,181.2,531.71,181.2ZM524,178c-1.28,0-1.82.47-1.82.62,0,.31,1.69,1.58,9.5,1.58,5,0,6.62-1.17,6.62-1.74,0-.25-.56-.54-1-.54a13,13,0,0,0-1.63.15,20.11,20.11,0,0,1-3,.25c-1.39,0-2.82,0-4.19-.08l-.64,0,.19-.61c1-3.29,2.26-6.74,3.21-9.38l.22-.62.53.38c.52.36,1.65.79,4.12.79,5,0,9.18-.1,12.69-.32l.36,0,.68,1.7c1.06,2.65,2.06,5.15,2.82,7.21l.24.67h-3.59c-3.61,0-4.14.69-4.14,1.1,0,.08.27.28,1.87.46,1.82.17,5.91.4,9.31.4,4.23,0,6.06-1.15,6.06-1.74,0-.23,0-.38-.86-.38s-2.23,0-3.74.08l-.35,0-.14-.33c-5-12.17-9-21.69-14.63-33.41-.19-.43-.37-1-.56-1.51a17.19,17.19,0,0,0-.71-1.85c-.53-1.05-1-1.08-1.34-.65-.52.6-1,2.18-.6,4.84l0,.34-.3.17c-.64.35-1.4,1.59-2.26,3.67-3,7.19-7.51,17.95-11.27,28.46l-.12.33Zm7.74-11.79.27-.72c2.26-6.11,4.78-12.54,7.28-18.58l.45-1.07.47,1c3.17,7,6.06,13.88,7.93,18.42l.28.69h-9.22c-2.86,0-5.11.05-6.69.16Zm8-17.85c-2.26,5.48-4.51,11.23-6.57,16.76,1.53-.08,3.54-.12,6-.12H547C545.19,160.71,542.63,154.63,539.81,148.36Z"/><path class="cls-7" d="M569.52,179.56c-2.16-.24-2.32-.56-2.32-1,0-1.2,1.84-1.6,4.64-1.6H576c0-10.4.08-20.16.08-30.72-3.84,0-7.68.08-11.12.16-.24,2.4-.32,6-.64,8.08-.24,1.68-.4,2.8-1.44,2.8-1.2,0-2.24-1.2-2.24-4.16,0-6,1.2-13.68,2.8-13.68.88,0,1.44,1.2,1.68,4.32,4.48-.16,9.76-.24,15-.24,3.84,0,7.12.08,10.4.16.16-3.2.64-4.4,1.44-4.4.64,0,1.2.72,1.68,4.48,1.84.16,2.08.64,2.08,1.12a2.44,2.44,0,0,1-1.68,2c.32,4.08.4,5.68.4,6.4,0,2.48-.8,4.48-2.24,4.48-.64,0-1-.56-1.12-1.92a67.79,67.79,0,0,1-.56-8.8,91.88,91.88,0,0,0-9.76-.72c.16,11,.16,7.6.24,19.28,0,5.2-.4,9.2-1.44,11.36,3.84-.08,7.76-.16,9.12-.16,1.12,0,1.36.32,1.36.88,0,1-2.16,2.32-6.56,2.32C577,180,571.28,179.72,569.52,179.56Z"/><path d="M583.6,181c-6.53,0-12.23-.32-14-.48h0c-1.88-.21-2.77-.48-2.77-1.46,0-1.86,2.75-2.1,5.14-2.1h3.66c0-5,0-9.87,0-14.74s0-9.86,0-15c-3.58,0-7.09.08-10.16.15-.08.89-.14,1.93-.2,2.93-.11,1.72-.21,3.49-.4,4.74-.25,1.72-.46,3.22-1.94,3.22-.64,0-2.74-.34-2.74-4.66s.83-14.18,3.3-14.18c1.49,0,1.94,2.1,2.14,4.3,4.25-.14,9.38-.22,14.5-.22,3.66,0,6.85.07,9.93.15.15-2.34.52-4.39,1.91-4.39,1.1,0,1.67,1.19,2.13,4.52,1.11.14,2.13.48,2.13,1.58a2.86,2.86,0,0,1-1.65,2.31c.33,4.31.37,5.54.37,6.09,0,3-1.07,5-2.74,5-1.34,0-1.52-1.6-1.61-2.36a68.13,68.13,0,0,1-.57-8.42c-1.93-.23-4.91-.56-8.75-.65.05,3.24.08,5.17.11,6.64,0,3.21.07,4.24.12,12.13,0,5.09-.39,8.66-1.18,10.84,3.75-.07,7.11-.14,8.36-.14.8,0,1.86.14,1.86,1.38S588.45,181,583.6,181Zm-14.49-1.46c1.77.15,7.54.48,14.18.48,4.33,0,6.2-1.22,6.2-1.84,0-.23,0-.38-.88-.38-1.36,0-5.18.07-9.31.16l-.84,0,.36-.74c1-2,1.42-5.64,1.42-11.24,0-7.95-.07-9-.12-12.23,0-1.56-.07-3.62-.12-7.22v-.52h.53a95.53,95.53,0,0,1,10,.73l.45.05v.45a67.12,67.12,0,0,0,.57,8.81c.18,1.5.5,1.5.64,1.5,1,0,1.78-1.69,1.78-4,0-.88-.13-2.92-.41-6.42l0-.37.35-.14a2,2,0,0,0,1.39-1.55c0-.13,0-.48-1.66-.63l-.41,0-.05-.4c-.47-3.69-1-4.08-1.21-4.08s-.77.28-1,4l0,.49h-.49c-3.3-.08-6.7-.17-10.62-.17-5.43,0-10.85.09-15.28.25h-.49l0-.48c-.26-3.39-.87-3.89-1.21-3.89-.88,0-2.35,6.25-2.35,13.29,0,2.32.67,3.7,1.78,3.7.57,0,.72-.66,1-2.39.19-1.22.29-3,.4-4.69.07-1.2.15-2.44.25-3.44l.05-.45h.45c3.39-.08,7.35-.16,11.38-.16H576v.29a107,107,0,0,1,.7,15.48c0,5,0,10.06.3,15.24v1h-5.57c-3.68,0-4.23.7-4.23,1.11C567.23,179.19,567.48,179.4,569.11,179.58Z"/><path class="cls-7" d="M475.05,111.72c.38-5.38,2-9.5,4.13-9.5.87,0,1.37.75,1.37,2.5,0,1.25-.12,3.25-.12,5.75,0,10.62,1.75,12.62,1.75,18,0,4.62-1.88,7.62-3.88,7.62-2.5,0-3.37-2.12-3.37-20a75.48,75.48,0,0,0-12.5-1.12c-10.88,0-16.88,6.37-16.88,14.12s3.13,11.75,12.63,16.38l9.5,4.75c18.62,9.12,21.87,14.62,21.87,23.12,0,14.25-9.37,25.63-29.75,25.63-19.12,0-28.62-7.13-28.62-21.25,0-7.75,4.25-13.88,8.25-13.88a1.15,1.15,0,0,1,1.25,1.13c0,1.75-2,5.25-2,12.5,0,9,6.75,16.12,22.5,16.12,13.12,0,21-6.5,21-15.87,0-7.38-4.13-12-18.88-19.88L454.18,153c-10.25-5.5-15.13-11.5-15.13-22,0-11.88,9.63-20.75,24.38-20.75A44.22,44.22,0,0,1,475.05,111.72Z"/><path d="M459.8,199.47c-19.33,0-29.12-7.32-29.12-21.75,0-8.23,4.61-14.38,8.75-14.38a1.66,1.66,0,0,1,1.75,1.63,10.09,10.09,0,0,1-.53,2.5,33.61,33.61,0,0,0-1.47,10c0,9.93,8,15.62,22,15.62,12.45,0,20.5-6,20.5-15.37,0-7.28-4.35-11.82-18.61-19.44l-9.13-4.87c-11.07-5.94-15.39-12.24-15.39-22.44,0-12.51,10.23-21.25,24.88-21.25a46.35,46.35,0,0,1,11.17,1.34c.4-4.44,1.81-9.34,4.58-9.34.85,0,1.87.52,1.87,3,0,.52,0,1.17-.05,1.93,0,1.07-.07,2.36-.07,3.82A59.39,59.39,0,0,0,482,122.56a29.9,29.9,0,0,1,.67,5.91c0,4.63-1.89,8.12-4.38,8.12-3,0-3.86-2.51-3.87-20.08a74.85,74.85,0,0,0-12-1c-9.8,0-16.38,5.47-16.38,13.62,0,7.42,3.12,11.43,12.34,15.93l9.51,4.75c18.84,9.23,22.15,14.95,22.15,23.57C490.05,189.46,478.46,199.47,459.8,199.47ZM439,164.34c-3.58,0-7.75,5.84-7.75,13.38,0,14,9.2,20.75,28.13,20.75,18.31,0,29.25-9.4,29.25-25.13,0-8.36-3.12-13.62-21.6-22.67l-9.5-4.76c-9.65-4.69-12.9-8.94-12.9-16.82,0-7.28,5.37-14.62,17.37-14.62a75.57,75.57,0,0,1,12.59,1.13l.41.08v.41c0,17.66.88,19.5,2.88,19.5,1.62,0,3.37-2.72,3.37-7.12a29.18,29.18,0,0,0-.65-5.73,60,60,0,0,1-1.1-12.27c0-1.47,0-2.77.08-3.85,0-.75.05-1.39.05-1.9,0-2-.66-2-.88-2-1.71,0-3.27,3.88-3.63,9l0,.63-.6-.19A44.32,44.32,0,0,0,463,110.72c-14.06,0-23.87,8.32-23.87,20.25,0,9.77,4.16,15.82,14.86,21.56l9.12,4.87c14.67,7.83,19.14,12.58,19.14,20.32,0,9.94-8.44,16.37-21.5,16.37-14.4,0-23-6.21-23-16.62a34.74,34.74,0,0,1,1.51-10.27,10.27,10.27,0,0,0,.49-2.23C439.75,164.59,439.45,164.34,439,164.34Z"/><path d="M380.6,177.9c-3.28-1.2-4.24-1.84-4.24-2.48s1-1.12,1.68-1.12,3,.8,5,1.2l.48-30.32-5.12-.24c-1-.08-1.36-.32-1.36-.88s.8-1.84,4.08-1.84a39.31,39.31,0,0,1,6.48.64,25.18,25.18,0,0,1,9-1.68c13.6,0,20.56,7.12,20.56,17,0,12.64-7.36,21.76-23,21.76A43.63,43.63,0,0,1,380.6,177.9Zm31.88-17c0-8.72-5.12-17.6-24.48-15.84l.08,31.6a39.12,39.12,0,0,0,6.48.72C405,177.42,412.48,171.9,412.48,160.94Z"/><path d="M333.24,178.54c-2.24-.24-2.4-.56-2.4-1,0-1.12,1.6-1.52,4.24-1.6.48-6.48.56-18.32.56-28.32-4.16-4.24-4.8-5.28-4.8-6.56,0-.81.8-1.28,1.92-1.28,2.64,0,4.4,1.52,5.6,4.24a312.5,312.5,0,0,1,25.44,28.88l-.56-27.44c-6.88-.4-7.76-.72-7.76-1.44,0-1,1.44-1.68,4-1.68,3.84,0,8.32-.16,10.56-.16,1,0,1.2.24,1.2.8,0,1-1.12,1.84-4.24,2.72v27c0,4.48-1.84,7-3.68,7-1.36,0-2.24-2.16-5-5.68-5.28-7-13.28-16.32-19.68-23.2.08,7.44.08,18,0,25.12,4.08,0,8.72-.16,10.72-.16,1.12,0,1.36.32,1.36.88,0,1-2.24,2.32-6.72,2.32C339.72,178.94,335,178.7,333.24,178.54Z"/><path d="M328.45,159.34c0,12.56-7.69,20.48-19.45,20.48-10.8,0-17.6-6-17.6-17.44,0-8.72,3.92-16.08,10.56-19.44,1.92-1.52,3.76-2.16,8.24-2.16C321.24,140.78,328.45,149.1,328.45,159.34Zm-32.41,2c0,8.72,4.32,15.44,14.16,15.44,8.48,0,14.33-6,14.33-16,0-11-9.21-16.88-22.25-15.84C298.28,148.54,296,153.5,296,161.34Z"/><path d="M274.4,178.48c-1.2-.08-1.44-.4-1.44-.8,0-1.36,2.88-1.68,5.6-1.68h.08c-.64-9-1.68-19.44-2.24-27.84-3.52,8.32-9.45,21.92-13.85,31.28a.79.79,0,0,1-.8.48c-.72,0-1-.4-1.68-2.08-3.92-9.92-9.2-19.84-13.68-28.16-.64,10.08-1,13.92-1.6,20.16-.4,3.76-.88,5.6-2.24,6.4,6,0,9.68-.64,10.64-.64.56,0,1,.24,1,.88,0,1-1.2,2.64-7.2,2.64-8.32,0-11.2-.4-11.2-1.6,0-.56.64-1.52,2.88-1.52.56,0,1,0,2,.08,1-7.68,2.24-19.28,3.2-29.12a11,11,0,0,1-.8-4.16c0-2.56.88-5,3.36-5,.8,0,1.36.4,1.36,1.68,0,.56-.08,1.76-.24,3.12,3.6,6,11.92,21.36,15.44,29.52,4.17-8.8,9.12-19.36,12.41-28.16.64-1.76,1.76-4.56,3.84-4.56.88,0,1.28.72,1.44,2.8.16,1.76.32,4.56.64,7.6.72,7.44,1.6,16,2.48,26.32,1.6.08,3.28.16,4.32.16s1.28.32,1.28.8c0,.8-1.2,2.24-4.08,2.24C281.84,179.36,278.64,178.88,274.4,178.48Z"/><path d="M212.73,178.56c-2.16-.24-2.32-.56-2.32-1,0-1.2,1.84-1.6,4.64-1.6h2.88c-.88-2.4-2.08-5.36-3.36-8.56-3.92.24-8.24.32-12.72.32a8,8,0,0,1-4.4-.88c-1.12,3.12-2.24,6.32-3.2,9.36,1.36.08,2.8.08,4.16.08,2.08,0,3.44-.4,4.64-.4.64,0,1.52.4,1.52,1,0,1.12-2.24,2.24-7.12,2.24-6.8,0-10-1-10-2.08,0-.56.88-1.12,2.32-1.12H191c3.76-10.48,8.24-21.28,11.28-28.48,1-2.32,1.76-3.52,2.48-3.92-.48-3.6.4-5.68,1.6-5.68.48,0,.88.4,1.28,1.2.48,1,.88,2.48,1.28,3.36,5.76,12,9.76,21.6,14.64,33.44,1.52-.08,2.88-.08,3.76-.08,1.12,0,1.36.32,1.36.88,0,1-2.16,2.24-6.56,2.24C218.57,179,214.49,178.72,212.73,178.56Zm-14.48-13.4c1.2-.08,3.2-.16,6.72-.16h8.48c-2.4-5.84-5.2-12.4-7.92-18.4C203.21,152.2,200.65,158.68,198.25,165.16Z"/><path d="M162.91,178.58c-2.18-.25-2.34-.57-2.34-1,0-1.21,1.85-1.61,4.67-1.61h3c-.24-10.47-.24-20.77.16-31.08-2.41-.08-4.59-.24-5.39-.32-2-.16-2.34-.41-2.34-.81,0-.88,1.69-2,4.27-2,4.11,0,12,.56,14.25.64,1,.08,1.21.33,1.21.89,0,.88-1.77,1.69-5.32,1.69h-1.61c.08,8.21.08,16.35,0,24.48a16,16,0,0,1-1,6.52c3-.08,5.8-.16,7.16-.16,1.13,0,1.37.32,1.37.88,0,1.05-2.17,2.26-6.6,2.26C170.15,179,164.68,178.74,162.91,178.58Z"/><path d="M88.53,105c.87-8.5,2.75-13.75,5.25-13.75,1.12,0,1.5.63,2.22,2.13v10.75a72.36,72.36,0,0,1,8-.38c35.75,0,51,18,51,43.5,0,25.13-13,44.5-50.88,44.5a73.72,73.72,0,0,1-16.5-2,15.52,15.52,0,0,1-6.25,1.13c-8.12,0-14.75-4.5-14.75-11,0-1.13.5-2,1.63-2,2.75,0,8,4.25,18.25,7A61.26,61.26,0,0,0,88,172.23V115.11c.15-1.75.15-3.5.28-5.25-14.5,2.25-22.5,9.25-22.5,21.12a32.91,32.91,0,0,0,2.12,12.63,4.51,4.51,0,0,1,.5,1.87.89.89,0,0,1-1,.88c-4.25,0-8.5-5.38-8.5-15.13C58.9,116.48,71.4,108,88.53,105ZM95,109.11v63.62c0,5.38-.75,10-3,13.38a120.25,120.25,0,0,0,15.38,1.12c28.25,0,39.87-14.5,39.87-36.37,0-24.63-15-41.88-47.37-41.88C98.13,109,96.5,109.11,95,109.11Z"/><path class="cls-7" d="M378.6,178.92c-3.28-1.2-4.24-1.84-4.24-2.48s1-1.12,1.68-1.12,3,.8,5,1.2l.48-30.32-5.12-.24c-1-.08-1.36-.32-1.36-.88s.8-1.84,4.08-1.84a39.31,39.31,0,0,1,6.48.64,25.18,25.18,0,0,1,9-1.68c13.6,0,20.56,7.12,20.56,17,0,12.64-7.36,21.76-23,21.76A43.63,43.63,0,0,1,378.6,178.92Zm32.88-17c0-8.72-5.12-17.6-24.48-15.84l.08,31.6a39.12,39.12,0,0,0,6.48.72C404,178.44,411.48,172.92,411.48,162Z"/><path d="M392.61,181.5a44.77,44.77,0,0,1-13.7-2.11c-3.49-1.28-4.56-2-4.56-2.95s1.32-1.62,2.18-1.62a12.63,12.63,0,0,1,2.46.55c.64.17,1.34.37,2,.53l.46-29.23-4.63-.21c-.61-.05-1.84-.15-1.84-1.38,0-.81,1-2.34,4.58-2.34a40.23,40.23,0,0,1,6.43.62,25.6,25.6,0,0,1,9-1.66c13,0,21.06,6.72,21.06,17.54C416.07,173.18,407.3,181.5,392.61,181.5Zm-16.56-5.68a1.6,1.6,0,0,0-1.18.62c0,.26.68.82,3.91,2h0a43.39,43.39,0,0,0,13.34,2.05c14.28,0,22.46-7.75,22.46-21.26,0-10.36-7.5-16.54-20.06-16.54a24.79,24.79,0,0,0-8.78,1.64l-.13,0-.13,0a39.23,39.23,0,0,0-6.4-.63c-2.94,0-3.58,1.07-3.58,1.34s0,.31.9.38l5.59.26-.5,31.41-.59-.12c-.87-.18-1.82-.45-2.66-.68A14.76,14.76,0,0,0,376.05,175.82ZM393,178.94a40.29,40.29,0,0,1-6.58-.73l-.4-.08-.08-32.47.45,0c9.29-.84,16.13.67,20.34,4.51,3.07,2.8,4.69,6.89,4.69,11.83C411.4,172.43,404.34,178.94,393,178.94Zm-5.9-1.64a37.72,37.72,0,0,0,6,.64c10.91,0,17.42-6,17.42-16,0-4.71-1.47-8.44-4.37-11.09-3.92-3.58-10.35-5-19.11-4.3Z"/><path class="cls-7" d="M332.24,179.56c-2.24-.24-2.4-.56-2.4-1,0-1.12,1.6-1.52,4.24-1.6.48-6.48.56-18.32.56-28.32-4.16-4.24-4.8-5.28-4.8-6.56,0-.8.8-1.28,1.92-1.28,2.64,0,4.4,1.52,5.6,4.24a312.5,312.5,0,0,1,25.44,28.88l-.56-27.44c-6.88-.4-7.76-.72-7.76-1.44,0-1,1.44-1.68,4-1.68,3.84,0,8.32-.16,10.56-.16,1,0,1.2.24,1.2.8,0,1-1.12,1.84-4.24,2.72v27c0,4.48-1.84,7-3.68,7-1.36,0-2.24-2.16-5-5.68-5.28-7-13.28-16.32-19.68-23.2.08,7.44.08,18,0,25.12,4.08,0,8.72-.16,10.72-.16,1.12,0,1.36.32,1.36.88,0,1-2.24,2.32-6.72,2.32C338.72,180,334,179.72,332.24,179.56Z"/><path d="M362.82,181.18c-1.2,0-2-1.14-3.29-3-.55-.78-1.23-1.76-2.07-2.85-4.8-6.33-12.24-15.13-18.77-22.21.07,7.15.07,16.63,0,23.33,2.25,0,4.65-.06,6.61-.1,1.5,0,2.77-.06,3.6-.06s1.86.14,1.86,1.38-2.26,2.82-7.22,2.82c-4.38,0-9.06-.24-10.85-.41h0c-2-.21-2.85-.48-2.85-1.53,0-1.62,2.09-2,4.27-2.09.47-6.8.53-18.93.53-27.63-4.17-4.26-4.8-5.33-4.8-6.76,0-1.07,1-1.78,2.42-1.78,2.7,0,4.67,1.45,6,4.45a326.25,326.25,0,0,1,24.49,27.63l-.52-25.43c-6.59-.4-7.77-.7-7.77-1.91s1.72-2.18,4.5-2.18c2.17,0,4.53-.06,6.61-.1,1.58,0,3-.06,4-.06.51,0,1.7,0,1.7,1.3s-1.31,2.22-4.24,3.09v26.59C367,178.59,364.9,181.18,362.82,181.18ZM338,151.2l.84.9c6.43,6.92,14,15.83,18.79,22.16.81,1.05,1.47,2,2,2.75,1.07,1.54,1.72,2.47,2.36,2.47,1.49,0,3-2.33,3-6.23V145.88l.36-.1c3.17-.91,3.83-1.72,3.83-2.24,0-.22,0-.3-.69-.3-1,0-2.33,0-3.88.06-2.06,0-4.4.1-6.56.1s-3.46.61-3.46,1.18c.33.54,5.15.82,7.21.94l.45,0,.6,29.47-.93-1.26a312.48,312.48,0,0,0-25.08-28.83l-.11-.15c-1.17-2.69-2.79-3.94-5.08-3.94-.7,0-1.4.24-1.4.78,0,1.12.63,2.12,4.6,6.21l.14.15v.2c0,8.92-.06,21.56-.55,28.36l0,.45H334c-2.46.08-3.71.45-3.71,1.1,0,.08,0,.11,0,.11s.25.25,1.91.43c1.82.17,6.52.4,10.63.4,4.37,0,6.14-1.28,6.14-1.82,0-.23,0-.38-.85-.38s-2.06,0-3.53.06c-2.09,0-4.68.1-7.06.1H337v-.09c.33-7.11,1-25.11,1-25.11Z"/><path class="cls-7" d="M327.28,160.36c0,12.56-7.68,20.48-19.44,20.48-10.8,0-17.6-6-17.6-17.44,0-8.72,3.92-16.08,10.56-19.44,1.92-1.52,3.76-2.16,8.24-2.16C320.08,141.8,327.28,150.12,327.28,160.36Zm-32.4,2c0,8.72,4.32,15.44,14.16,15.44,8.48,0,14.32-6,14.32-16,0-11-9.2-16.88-22.24-15.84C297.12,149.56,294.88,154.52,294.88,162.36Z"/><path d="M307.84,181.34c-11.51,0-18.1-6.54-18.1-17.94,0-9,4-16.42,10.79-19.87,2.15-1.69,4.23-2.23,8.51-2.23,10.86,0,18.74,8,18.74,19.06C327.78,173.1,320,181.34,307.84,181.34Zm1.2-39c-4.54,0-6.18.66-7.93,2l-.09.05c-6.44,3.26-10.28,10.36-10.28,19,0,10.76,6.23,16.94,17.1,16.94,11.5,0,18.94-7.85,18.94-20C326.78,149.89,319.32,142.3,309,142.3Zm0,36c-9.18,0-14.66-6-14.66-15.94,0-7.51,2-12.84,6.4-16.78l.13-.11h.17c7.57-.6,14,1.12,18,4.87a15.14,15.14,0,0,1,4.74,11.47C323.86,171.82,318,178.3,309,178.3Zm-7.71-31.86c-4.06,3.72-5.95,8.78-5.95,15.92,0,9.49,5,14.94,13.66,14.94,8.39,0,13.82-6.09,13.82-15.5a14.13,14.13,0,0,0-4.42-10.73C314.62,147.54,308.55,145.89,301.33,146.44Z"/><path class="cls-7" d="M273.23,179.48c-1.2-.08-1.44-.4-1.44-.8,0-1.36,2.88-1.68,5.6-1.68h.08c-.64-9-1.68-19.44-2.24-27.84-3.52,8.32-9.44,21.92-13.84,31.28a.8.8,0,0,1-.8.48c-.72,0-1-.4-1.68-2.08-3.92-9.92-9.2-19.84-13.68-28.16-.64,10.08-1,13.92-1.6,20.16-.4,3.76-.88,5.6-2.24,6.4,6,0,9.68-.64,10.64-.64.56,0,1,.24,1,.88,0,1-1.2,2.64-7.2,2.64-8.32,0-11.2-.4-11.2-1.6,0-.56.64-1.52,2.88-1.52.56,0,1,0,2,.08,1-7.68,2.24-19.28,3.2-29.12a11,11,0,0,1-.8-4.16c0-2.56.88-5,3.36-5,.8,0,1.36.4,1.36,1.68,0,.56-.08,1.76-.24,3.12,3.6,6,11.92,21.36,15.44,29.52,4.16-8.8,9.12-19.36,12.4-28.16.64-1.76,1.76-4.56,3.84-4.56.88,0,1.28.72,1.44,2.8.16,1.76.32,4.56.64,7.6.72,7.44,1.6,16,2.48,26.32,1.6.08,3.28.16,4.32.16s1.28.32,1.28.8c0,.8-1.2,2.24-4.08,2.24C280.67,180.36,277.47,179.88,273.23,179.48Z"/><path d="M260.59,181.5c-1.15,0-1.58-.91-2.15-2.41a260.79,260.79,0,0,0-12.83-26.56c-.57,8.95-.89,12.64-1.49,18.44-.29,2.81-.65,4.68-1.47,5.84,3.6-.06,6.22-.33,7.85-.5.74-.08,1.23-.13,1.53-.13a1.32,1.32,0,0,1,1.46,1.38c0,.94-.75,3.14-7.7,3.14-9.19,0-11.7-.45-11.7-2.1,0-.75.71-2,3.38-2,.47,0,.84,0,1.56,0,1-7.77,2.21-19.13,3.13-28.51a11.37,11.37,0,0,1-.79-4.23c0-3.42,1.44-5.46,3.86-5.46.69,0,1.86.28,1.86,2.18a29.84,29.84,0,0,1-.23,3c3.32,5.56,11.16,19.94,14.94,28.43,4.57-9.67,8.89-19,11.92-27.13.57-1.58,1.78-4.88,4.31-4.88,1.55,0,1.81,1.68,1.94,3.26,0,.62.11,1.37.17,2.22.12,1.52.26,3.41.46,5.36l.51,5.15c.59,6.06,1.27,12.91,1.94,20.75,1.47.07,2.93.14,3.86.14s1.78.21,1.78,1.3-1.46,2.74-4.58,2.74a72.08,72.08,0,0,1-7.66-.55c-1-.11-2.1-.23-3.26-.33-.53,0-1.9-.14-1.9-1.3,0-1.42,1.84-2.13,5.64-2.18-.3-4.18-.69-8.67-1.06-13s-.72-8.4-1-12.21c-3.83,9-9.12,21.06-13,29.38A1.32,1.32,0,0,1,260.59,181.5Zm-15.75-32.1.83,1.54c3.82,7.1,9.6,17.84,13.7,28.22.67,1.76.89,1.76,1.22,1.76a.31.31,0,0,0,.35-.2c4.18-8.9,10-22.11,13.83-31.26l.82-1.93.14,2.1c.29,4.37.7,9.17,1.14,14.27.39,4.54.79,9.23,1.1,13.56l0,.54h-.53c-3.85,0-5.18.64-5.18,1.18,0,.21.68.28,1,.3h0c1.17.11,2.26.23,3.29.34a70.36,70.36,0,0,0,7.55.54c2.7,0,3.58-1.29,3.58-1.74,0-.11,0-.15,0-.15s-.12-.1-.8-.15c-1,0-2.68-.08-4.31-.16l-.43,0,0-.44c-.68-8-1.37-15-2-21.17l-.5-5.14c-.21-2-.35-3.87-.46-5.39-.07-.84-.12-1.59-.18-2.22-.18-2.34-.66-2.34-.94-2.34-1.83,0-2.91,3-3.37,4.23-3.15,8.45-7.67,18.16-12.42,28.2l-.47,1-.44-1c-3.6-8.34-12-23.82-15.41-29.46l-.09-.15,0-.17c.16-1.38.24-2.55.24-3.06,0-1.09-.43-1.18-.86-1.18-2.58,0-2.86,3.12-2.86,4.46a10.5,10.5,0,0,0,.76,4l.05.12,0,.13c-.93,9.6-2.22,21.3-3.2,29.13l0,.39,1.21-.72c1.08-.64,1.59-2.16,2-6,.63-6.15,1-9.92,1.6-20.14Zm-7.37,28.36c-1.95,0-2.38.76-2.38,1,0,1.1,8,1.1,10.7,1.1,5.29,0,6.7-1.34,6.7-2.14,0-.23,0-.38-.46-.38-.25,0-.75,0-1.43.12a80.27,80.27,0,0,1-9.21.52h-1.84l.23-.13-.35,0C238.41,177.76,238,177.76,237.47,177.76Z"/><path class="cls-7" d="M211.56,179.56c-2.16-.24-2.32-.56-2.32-1,0-1.2,1.84-1.6,4.64-1.6h2.88c-.88-2.4-2.08-5.36-3.36-8.56-3.92.24-8.24.32-12.72.32a8,8,0,0,1-4.4-.88c-1.12,3.12-2.24,6.32-3.2,9.36,1.36.08,2.8.08,4.16.08,2.08,0,3.44-.4,4.64-.4.64,0,1.52.4,1.52,1,0,1.12-2.24,2.24-7.12,2.24-6.8,0-10-1-10-2.08,0-.56.88-1.12,2.32-1.12h1.2c3.76-10.48,8.24-21.28,11.28-28.48,1-2.32,1.76-3.52,2.48-3.92-.48-3.6.4-5.68,1.6-5.68.48,0,.88.4,1.28,1.2.48,1,.88,2.48,1.28,3.36,5.76,12,9.76,21.6,14.64,33.44,1.52-.08,2.88-.08,3.76-.08,1.12,0,1.36.32,1.36.88,0,1-2.16,2.24-6.56,2.24C217.4,180,213.32,179.72,211.56,179.56Zm-14.48-13.4c1.2-.08,3.2-.16,6.72-.16h8.48c-2.4-5.84-5.2-12.4-7.92-18.4C202,153.2,199.48,159.68,197.08,166.16Z"/><path d="M196.28,180.2c-3.92,0-10.5-.34-10.5-2.58,0-.94,1.19-1.62,2.82-1.62h.85c3.75-10.43,8.17-21.06,11.17-28.18.87-2.09,1.64-3.37,2.41-4-.28-2.44,0-4.37.87-5.32a1.65,1.65,0,0,1,1.26-.62c.89,0,1.41.84,1.73,1.48a17.47,17.47,0,0,1,.76,2,14.9,14.9,0,0,0,.53,1.41c5.58,11.63,9.55,21.1,14.51,33.13,1.39-.06,2.6-.06,3.43-.06s1.86.14,1.86,1.38S225.8,180,220.92,180c-3.62,0-7.69-.25-9.4-.4h0c-1.88-.21-2.77-.48-2.77-1.46,0-1.86,2.75-2.1,5.14-2.1H216c-.71-1.91-1.61-4.15-2.55-6.5l-.42-1c-3.45.2-7.51.3-12.39.3a10.17,10.17,0,0,1-4.13-.66c-.85,2.38-1.88,5.31-2.8,8.17,1.15,0,2.34,0,3.49,0a20.36,20.36,0,0,0,2.89-.24,14.39,14.39,0,0,1,1.75-.16c.85,0,2,.54,2,1.54C203.9,179.15,201,180.2,196.28,180.2ZM188.6,177c-1.27,0-1.82.47-1.82.62,0,.31,1.69,1.58,9.5,1.58,5,0,6.62-1.17,6.62-1.74,0-.25-.55-.54-1-.54a13,13,0,0,0-1.62.15,20.14,20.14,0,0,1-3,.25c-1.38,0-2.81,0-4.19-.08l-.64,0,.19-.61c1-3.29,2.26-6.74,3.21-9.38l.22-.62.54.38c.51.36,1.64.79,4.11.79,5,0,9.18-.1,12.69-.32l.36,0,.68,1.7c1.07,2.65,2.07,5.15,2.82,7.21l.25.67h-3.6c-3.6,0-4.14.69-4.14,1.1,0,.08.28.28,1.87.46,1.83.17,5.92.4,9.31.4,4.23,0,6.06-1.15,6.06-1.74,0-.23,0-.38-.86-.38s-2.22,0-3.73.08l-.35,0-.14-.33c-5.18-12.56-9-21.67-14.63-33.41-.19-.43-.37-1-.56-1.51a15.25,15.25,0,0,0-.72-1.85c-.52-1.05-1-1.09-1.34-.65-.52.6-1,2.18-.59,4.84l0,.34-.3.17c-.63.35-1.39,1.59-2.26,3.67-3,7.18-7.5,17.94-11.27,28.46l-.12.33Zm7.74-10.79.27-.72c2.26-6.1,4.78-12.53,7.29-18.58l.44-1.07.48,1c3.16,7,6.06,13.87,7.92,18.42l.29.69H203.8c-2.85,0-5.1.05-6.69.16Zm8-17.85c-2.26,5.49-4.51,11.24-6.56,16.76,1.53-.08,3.54-.12,6-.12h7.74C209.77,160.71,207.2,154.62,204.38,148.36Z"/><path class="cls-7" d="M161.74,179.58c-2.18-.25-2.34-.57-2.34-1,0-1.21,1.85-1.61,4.67-1.61h3c-.24-10.47-.24-20.77.16-31.08-2.41-.08-4.59-.24-5.39-.32-2-.16-2.34-.41-2.34-.81,0-.88,1.69-2,4.27-2,4.11,0,12,.56,14.25.64,1,.08,1.21.33,1.21.89,0,.88-1.77,1.69-5.31,1.69h-1.61c.08,8.21.08,16.35,0,24.48a16,16,0,0,1-1,6.52c3-.08,5.8-.16,7.17-.16,1.12,0,1.36.32,1.36.88,0,1.05-2.17,2.26-6.6,2.26C169,180,163.51,179.74,161.74,179.58Z"/><path d="M173.25,181c-4.27,0-9.78-.25-11.56-.41h0c-1.89-.21-2.78-.48-2.78-1.47,0-1.87,2.76-2.11,5.17-2.11h2.47c-.25-11-.2-20.87.15-30.1-2.18-.08-4.15-.23-4.92-.31-1.63-.13-2.79-.3-2.79-1.3,0-1.22,1.92-2.52,4.77-2.52s7.43.27,10.79.46l3.48.19c.85.07,1.7.29,1.7,1.39,0,1.37-2.18,2.19-5.82,2.19h-1.11c.08,8,.08,16.07,0,24a18.1,18.1,0,0,1-.73,6h.1c2.61-.07,5.08-.14,6.33-.14.8,0,1.87.14,1.87,1.39S178.16,181,173.25,181ZM162,179.57c1.76.16,7.22.4,11.46.4s6.1-1.16,6.1-1.75c0-.23,0-.38-.87-.38-1.23,0-3.69.07-6.3.14l-1.64,0,.32-.72A15.51,15.51,0,0,0,172,171c.08-8.09.08-16.32,0-24.47V146h2.11c3.67,0,4.81-.87,4.81-1.19s0-.32-.74-.38l-3.48-.19c-3.35-.19-7.93-.45-10.73-.45-2.48,0-3.76,1.05-3.76,1.51a6,6,0,0,0,1.87.3c.83.08,3,.24,5.37.32l.5,0,0,.5c-.37,9.5-.42,19.65-.16,31.05l0,.51h-3.5c-3.62,0-4.16.69-4.16,1.11C160.15,179.19,160.4,179.39,162,179.57Z"/><path class="cls-7" d="M87.36,106c.88-8.5,2.75-13.75,5.25-13.75,1.13,0,1.5.63,1.39,2.13v10.75c2.86-.25,5.86-.38,8.86-.38,35.75,0,51,18,51,43.5,0,25.13-13,44.5-50.87,44.5a73.72,73.72,0,0,1-16.5-2,15.52,15.52,0,0,1-6.25,1.13c-8.13,0-14.75-4.5-14.75-11,0-1.13.5-2,1.62-2,2.75,0,8,4.25,18.25,7A34.78,34.78,0,0,0,86,173.25V116.13a11.43,11.43,0,0,0,1.11-5.25c-14.5,2.25-22.5,9.25-22.5,21.12a32.7,32.7,0,0,0,2.13,12.63,4.67,4.67,0,0,1,.5,1.87.9.9,0,0,1-1,.88c-4.25,0-8.5-5.38-8.5-15.13C57.74,117.5,70.24,109,87.36,106ZM94,110.13v63.62c0,5.38-.75,10-3,13.38a120.25,120.25,0,0,0,15.38,1.12c28.25,0,39.87-14.5,39.87-36.37,0-24.63-15-41.88-47.37-41.88C97.13,110,95.5,110.13,94,110.13Z"/><path d="M103.38,193.25a75.57,75.57,0,0,1-16.46-2,16.08,16.08,0,0,1-6.29,1.1c-8.7,0-15.25-4.95-15.25-11.5,0-1.54.81-2.5,2.12-2.5s3.06.84,5.47,2a69.43,69.43,0,0,0,12.42,4.88,52.35,52.35,0,0,0,1.11-12c0-6.16.14-23.89.24-38.13.07-9.23.14-17.2.14-19,0-1.53,0-3.1.08-4.66C72.72,113.84,65.5,120.75,65.5,132a32.48,32.48,0,0,0,2.09,12.46,4.91,4.91,0,0,1,.54,2,1.4,1.4,0,0,1-1.5,1.38c-4.48,0-9-5.37-9-15.63,0-13.56,10.8-23.27,29.66-26.67.58-5.34,2.07-13.83,5.71-13.83,1.77,0,2,1.41,2,2.63v10.2c2.57-.21,5.41-.33,8.25-.33,33.21,0,51.5,15.63,51.5,44C154.75,168.78,145.84,193.25,103.38,193.25Zm-16.55-3,.17,0a74.27,74.27,0,0,0,16.38,2c33,0,50.37-15.21,50.37-44,0-27.73-17.93-43-50.5-43-3,0-6,.13-8.7.38l-.55,0V94.38c0-1.52-.38-1.63-1-1.63-1.64,0-3.74,3.5-4.75,13.3l0,.38-.37.07c-10.91,1.91-29.21,7.79-29.21,25.75,0,9.5,4.12,14.63,8,14.63.18,0,.5,0,.5-.38a4.2,4.2,0,0,0-.46-1.68A33.07,33.07,0,0,1,64.5,132c0-11.81,7.93-19.29,22.92-21.62l.62-.09,0,.62c-.12,1.74-.12,3.51-.12,5.22s-.07,9.77-.14,19c-.1,14.24-.24,32-.24,38.12A51.15,51.15,0,0,1,86.23,186l-.12.49-.49-.13a69.8,69.8,0,0,1-13.09-5.08c-2.29-1.1-3.94-1.9-5-1.9-.93,0-1.12.81-1.12,1.5,0,6,6.12,10.5,14.25,10.5a15,15,0,0,0,6.05-1.09Zm20-1.1A118.45,118.45,0,0,1,91.43,188l-.78-.11.43-.66c2-3,2.92-7.14,2.92-13.09V110h.5c.71,0,1.46,0,2.23-.06s1.73-.06,2.65-.06c30.42,0,47.87,15.44,47.87,42.37C147.25,176.37,133.29,189.13,106.88,189.13Zm-14.55-2.39a119.43,119.43,0,0,0,14.55,1c25.75,0,39.37-12.4,39.37-35.87,0-26.3-17.09-41.38-46.87-41.38-.91,0-1.78,0-2.61.07l-1.77.05v63.13C95,179.49,94.15,183.65,92.33,186.74Z"/><path class="cls-8" d="M177.78,590.12l-1.87-1.74c.13-1.34.13-2.68.26-4,.14-2.28.27-4.16.54-4.42a.74.74,0,0,0,.27-.67v-.67c0-1.48.94-6.84,1.34-9.25l.4-2.68c.4-1.88,2-10.32,2.41-11a2.52,2.52,0,0,0,.14-1.2c0-.27,0-.54.13-.54s.54-.67.54-1.47.13-1.34.26-1.34.14-.27.14-.54v-.4l-.27-.94-1.88.27c-1.34.13-10.45.67-14.07.67-7.9,0-9.38-.94-11.39-1.34-.53.13-.67.67-1.07,1.74a12.26,12.26,0,0,1-.8,2.14,8.36,8.36,0,0,0-.54,2.55,7.77,7.77,0,0,1-.53,2.14,18.43,18.43,0,0,0-.81,3l-1.34,5a70.94,70.94,0,0,0-2,12.06,58.19,58.19,0,0,1-2.14,10.72,1.9,1.9,0,0,1-1.88.94,3.7,3.7,0,0,1-2.14-.67,3.76,3.76,0,0,0-1.21-.67c-.4,0-.94-1.48-.94-2.55a1.62,1.62,0,0,1,.14-.8,25.77,25.77,0,0,0,.53-5.09c.14-2.15.27-4.16.54-4.43a16.17,16.17,0,0,0,.8-3.48,22.53,22.53,0,0,1,.94-4,7.11,7.11,0,0,0,.54-2.55c0-.67.13-2.81.67-3.35a4.29,4.29,0,0,0,.4-2.14c0-1.47,2.14-9.51,2.68-12.06-1.21-.8-5.09-2.55-15.28-2.55-6.43,0-11.25,3.49-11.79,8a3.87,3.87,0,0,0-.13,1.21,4.93,4.93,0,0,0,2.27,4.15,3.07,3.07,0,0,0,2,.94,2.67,2.67,0,0,0,.93-.13l1.34-.27c.14.13.27.27.27.4s-.27.54-.27.81c0,.53-.53,1.74-2.94,1.74-1.75,0-2.15-.67-3.35-1.07-2.28-1.88-4.43-4.56-4.43-7.78a6.87,6.87,0,0,1,.27-1.6c1.47-6.3,9.78-9.25,15.95-9.25,5.09,0,10.05,2.41,15.54,2.41.54,0,.67-.13.94-.8l.94-4.16a9,9,0,0,1,.53-2.81,18.89,18.89,0,0,0,.81-3.22V533a5.61,5.61,0,0,1,.53-2.28,4.4,4.4,0,0,0,.54-1.61l.4-1.88a9.81,9.81,0,0,0,.27-2,2.52,2.52,0,0,1,.4-1.6,16.24,16.24,0,0,0,.81-3.49,16.17,16.17,0,0,1,.8-3.48,7.83,7.83,0,0,0,.54-2.82c.26-2.68,1.47-5.89,2.68-7.1a3.33,3.33,0,0,1,2.27-.8,2.76,2.76,0,0,1,1.21.26c.67.41.94,2,.94,4.16a45.67,45.67,0,0,1-.4,5.49c-.14,1.34-.41,2.68-.54,4a10.7,10.7,0,0,1-.54,2.28,14.77,14.77,0,0,0-.53,3,6.17,6.17,0,0,1-.54,2.54.3.3,0,0,0-.27.27c0,.27.14.54.14.81a10.93,10.93,0,0,1-.27,1.87l-1.21,4.56a34.15,34.15,0,0,1-1.34,4.15,10.6,10.6,0,0,0-.8,4.56v2.41l1.07.14a75,75,0,0,0,12.46,1.2c6.17,0,12.2,0,13.54-.67.8-.4,2-2.68,2.81-8.44a9.3,9.3,0,0,1,.54-2.14c.27-.67.13-.81.8-3.89a7.92,7.92,0,0,1,.81-2.55,6.87,6.87,0,0,0,.67-2.54,25.07,25.07,0,0,1,.8-3.75L190,520l.8-2.55a5.85,5.85,0,0,0,.4-2,19.84,19.84,0,0,1,.81-3.35l1.2-4c.67-2.41.94-2.81,1.88-2.95a11.88,11.88,0,0,1,2-.13,1.42,1.42,0,0,1,1.34.53c.27.41.4,2.69.4,5a18.87,18.87,0,0,1-.4,5,9.12,9.12,0,0,0-.54,1.74l-.53,2.95a73.35,73.35,0,0,1-2.28,9.78,14.38,14.38,0,0,0-.81,2.82c-2.54,10.58-2.68,11.66-3.75,16.08l-1.2,5c-.41,1.6-.67,3.21-1.08,4.82-1.34,6-1.87,9-2.41,10.32a15.84,15.84,0,0,0-.8,3.75c-.14,1.34-.54,3.22-.67,4.15-.54,3.62-.94,7.37-1.48,11l.27,1.61a2.61,2.61,0,0,1-.8,1.61,2.08,2.08,0,0,1-1.61.94C179.93,592,179.12,591.33,177.78,590.12Z"/><path class="cls-8" d="M296.77,589.85c-.13-.27-.67-.4-1.2-.4s-1.48-.4-2.68-1.88a7.69,7.69,0,0,1-1.88-2.68,4.25,4.25,0,0,0-.67-1.34c-.67-.93-1.07-3.61-1.07-6.7,0-1.74.27-3.61.4-5.22.14-1.21.54-3,.67-4s.54-3.22.67-5a23.8,23.8,0,0,0,.8-4.29,14.15,14.15,0,0,1,.67-2.54,43.8,43.8,0,0,0,1.21-7.51c0-3.48-.13-4.29-.54-4.29-3.75,0-7.63,6.44-11,11.26l-.81,1.07-.67,1.34c0,.4-.27.81-.4.81s-.4.26-.4.53a2.61,2.61,0,0,1-.81,1.21,2.9,2.9,0,0,0-.93,1.61,3.9,3.9,0,0,1-.81,2,4.53,4.53,0,0,0-.94,1.74,1.93,1.93,0,0,1-.26.8c-.54.81-.94,1.74-1.48,2.55-2.54,5.22-4,8.44-5.36,10.45-.27.4-.53.67-.53.94a.36.36,0,0,1-.41.4.9.9,0,0,0-.8.54,1.27,1.27,0,0,1-.94.67c-2,0-4.15-2.55-4.15-4.43,0-.8-.14-1.6-.14-2.54a50.55,50.55,0,0,1,1.48-12.33,28,28,0,0,0,.53-4.42c0-.4.27-1.48.27-2.28l.14-.54a26.59,26.59,0,0,0,.67-4.55c0-1.48-.27-2.28-.54-2.28a2.18,2.18,0,0,0-.67.27c-1.21.67-2.41,1.74-2.41,2.41a3.11,3.11,0,0,1-1.21,1.61c-.67.53-1.2,1.07-1.2,1.34a32.88,32.88,0,0,1-3.09,3.88c0-.53-1.87,2.95-2.14,3.22a3.88,3.88,0,0,0-1.21,1.88c0,.13-2.41,5.09-2.68,5.36a2.2,2.2,0,0,0-.67,1.2l-.67,1.34a3.4,3.4,0,0,0-.67,1.48,4.17,4.17,0,0,1-.8,1.47,7.11,7.11,0,0,0-1.07,2.28c-.14.8-.4,1.34-.54,1.34s-.27.8-.4,1.74c-.27,2.14-.67,3-2.14,3-.41,0-1.08.27-1.48.27a2.27,2.27,0,0,1-1.34-.41,9.44,9.44,0,0,0-2.14-.93c-.54-.14-.81-.14-.81-.54a1.89,1.89,0,0,1,.14-.8c0-.54-.27-1.21-.27-1.75a5.69,5.69,0,0,1-.13-.67c0-.26.13-.67.13-1.07,0-4.69.94-6.56,1.21-7.23,0-.41.13-.41.13-.67a1.77,1.77,0,0,1,.54-1.34v-.27a24.74,24.74,0,0,1-.14-3c.54-2,.27-3.48.27-5.9a3.88,3.88,0,0,0-1.07-2.68,1.62,1.62,0,0,0-.94-.26c-1.47,0-8.71,3.35-9.92,4s-2.27,1.34-2.27,1.6-.41.54-.67.54a2.3,2.3,0,0,1-.67,1.61c-.81,1.87-1.48,3.88-2.28,5.76a16.32,16.32,0,0,0-2,3.35c-.27.8-.94,1.21-3.22,4.82-2.81,4.43-5.76,6.57-8.57,7.51-.54.27-1.08.4-1.08.27s-.13.13-.4.13c-6.57,0-9.92-3.08-10.32-9.78l-.13-2.55c1.07-4.82,2.81-8.71,5.23-11.25l.13-1.21-1.48-1.34a10.88,10.88,0,0,1-2.14-2.28,13.54,13.54,0,0,1-1.21-5,8,8,0,0,1,.27-1.87,4.87,4.87,0,0,1,.67-1.74c.14,0,.27-.27.27-.67,3.08-6.3,9.25-10.72,15-10.72a13.21,13.21,0,0,1,11.26,6.83c1.07,1.88,1.74,3.08,1.74,4.15V549c0,4.16.13,6.57,0,8v.4c0,.54.13.81.4.81s.67-.27,1.34-.81,2.14-.8,3.22-1.34,2.54-1.07,2.94-1.34a10.52,10.52,0,0,1,2.15-.8,3.67,3.67,0,0,0,1.61-.54,12.33,12.33,0,0,1,3.21-.26c4,0,5.09.53,5.76,4.42a39,39,0,0,1,.14,5.76v1.07c-.14.94-.4,1.88-.54,2.82a7.22,7.22,0,0,0-.4,2.14c0,.27,0,1.07.54,1.07a.56.56,0,0,0,.53-.53,2.69,2.69,0,0,1,.54-1.08l2.54-4.69c.27-.8.54-1.74.81-1.74,2-2.81,3.35-5.36,4.29-6.3a6.05,6.05,0,0,0,1.2-1.47,8,8,0,0,1,1.48-1.88c0-.53,3.61-4.42,3.88-4.82a.9.9,0,0,1,.67-.54,5.53,5.53,0,0,0,1.48-.8,3.26,3.26,0,0,1,2.14-.8h.54c1.6,0,3.75.8,3.75,1.6,0,.14.13.41.27.41s.53.53.93,1.34a5.88,5.88,0,0,1,.54,3.21v1.88s-.67,6.16-1.21,10.18c-.26,2.28-.53,4.56-.53,5.36v.81l1.07-1.21a5.18,5.18,0,0,0,1.34-2.14,7.63,7.63,0,0,1,.94-1.88l5-8.17c3.08-5,8.3-13.27,10.05-13.27a3.07,3.07,0,0,0,1.34-.8,3.94,3.94,0,0,1,1.2-.94,2.37,2.37,0,0,0,.94-.67,3.09,3.09,0,0,1,2.28-.67,8,8,0,0,1,3.75,1.07,3.46,3.46,0,0,1,2,2.68,23.29,23.29,0,0,1,.54,5.36,81.44,81.44,0,0,1-1.34,14.2,37.58,37.58,0,0,0-.94,4.43,6.18,6.18,0,0,1-.54,2.14,20.58,20.58,0,0,0-.67,5.76v4.29c0,2.81.14,4.82,1.34,4.82,4.16,0,8.85-8.84,9.79-10.58.8-1.48,3.21-7.64,3.88-8.31a7.62,7.62,0,0,0,1.21-2.14,5.26,5.26,0,0,1,1.07-2,1.22,1.22,0,0,0,.4-.67,30.22,30.22,0,0,1,2.28-5.77,1,1,0,0,1,.8-.53A1.57,1.57,0,0,1,319,557v.81c-1.48,2.94-5.5,12.73-6.3,13.8a9.11,9.11,0,0,1-1.34,2.28c-.13.13-3.89,10.31-9.65,15.14-.8.67-1.61.67-3,.8a1.42,1.42,0,0,1-1.07.27C297.31,590.12,296.91,590.12,296.77,589.85ZM220.39,561c2.55-1.34,2.15-1.34,2.68-3.48a10,10,0,0,0,.27-2.95c0-.8,0-2-.13-3.62-.27-4.42-.67-5.36-1.48-6.16a1.59,1.59,0,0,1-.4-.81c0-.93-3.62-4.95-8.71-4.95a10.64,10.64,0,0,0-2,.26,13.16,13.16,0,0,0-4.15,1.48c-3.36,2.54-5.23,3.88-5.23,11.25.67,4,2.14,7.51,2.81,5.1.14-.41.67-2.15,1.21-2.28-.54.13,2.81-3,3.48-3.22a4,4,0,0,1,2-.67,2.68,2.68,0,0,1,1.88.81c1.34,1.34.67,2.27.13,2.27a.6.6,0,0,0-.53.41c0,.26-.41.8-1.07,1.47-1.08,1.07-2.68,3.75-2.68,4.42,0,.14.53.67,1.07,1.07l4.29.67C217.58,562.11,218.38,562.11,220.39,561Zm-12.86,20.37a3.27,3.27,0,0,0,1.47-.54,41.36,41.36,0,0,0,5.36-5c0-.14.27-.41.4-.67.41-.81,3.22-4.83,3.62-5.63l.94-1.88c.8-1.34,2.28-4.29,2.14-4.55-.26-.54-1.47.4-6.16,1.34a34.24,34.24,0,0,1-3.89.26c-4.69,0-4.82-.8-5.09-.4a16.75,16.75,0,0,0-3.22,9.11,2.77,2.77,0,0,1-.4,1.75c-.13.13.4.93.4,1.74a5.71,5.71,0,0,0,1.08,4c.53.67,2,1.07,2.28.8A2,2,0,0,1,207.53,581.41Z"/><path class="cls-8" d="M316.47,588.78c-.4,0-3.35-2.95-4.29-4.29a15.87,15.87,0,0,1-2-5.63c0-.13.14-.26.14-.4a12.37,12.37,0,0,0-.41-2,6.15,6.15,0,0,0-.13-.67l.8-5.49a14.44,14.44,0,0,1,.67-2.68,1,1,0,0,0,.14-.54,9.24,9.24,0,0,1,1.34-2.54,11,11,0,0,0,1.07-2.15,5.75,5.75,0,0,1,1.07-2.28l1.74-3.21a16.16,16.16,0,0,1,1.34-2.41c.27-.27.54-.54.54-.67,0-.41.54-1.08,1.07-1.61,1.07-1.21,1.34-1.48,1.34-1.88s4.29-4.82,4.56-5c1.47-1.07,4.55-3.75,8.31-3.75a7.6,7.6,0,0,1,4,1.07c1.47.81,2.68,2.42,3.61,5a5.37,5.37,0,0,1,.54,2.15,4,4,0,0,1-.27,1.07,3.65,3.65,0,0,1-.67,1.61l-.4,1.2c-.94,2-4.69,6.3-5.09,6.3-2.68,2.41-3.22,2.41-7.37,4.69-2.68,1.21-3.75,1.61-5.5,1.74l-2.28.14-.66,1.47c-.67,1.34-.81,2.28-1.88,7.37l-.4,1.74a18.48,18.48,0,0,0-.4,3.22,8.59,8.59,0,0,0,.93,3.21c0,.14.14.14.14.27.94,1.88,2.81,3.49,4.42,3.49a12.77,12.77,0,0,0,5.63-1.75c3.88-2.14,9.91-8,10.72-9.64a6,6,0,0,1,1.61-1.61,5.58,5.58,0,0,0,1.47-1.61,52.65,52.65,0,0,1,3.89-6,7.9,7.9,0,0,0,1.2-2.14,5.4,5.4,0,0,1,1.07-2,1.26,1.26,0,0,0,.41-.67,53.83,53.83,0,0,1,2.27-5.77,1,1,0,0,1,.81-.53c.53,0,1.61.53,1.61,1.47a.48.48,0,0,0-.14.4v.41c-1.47,2.94-5.49,11-6.3,12.06l-1.34,2.27a16.32,16.32,0,0,1-2.14,3,7.15,7.15,0,0,0-1.34,1.88,83.23,83.23,0,0,1-8.58,9.38c-.8.67-1.74,1.2-2.54,1.87a16.65,16.65,0,0,1-3.75,1.75,9.14,9.14,0,0,1-4.16,1.07C320.62,591.06,317.68,588.78,316.47,588.78Zm8.71-26.13c.8-.4,1.88-.8,2.28-1.07,4.69-2.55,6.3-3.62,9.24-8a8.26,8.26,0,0,0,1.48-4.29,4.37,4.37,0,0,0-2.15-3.89,2,2,0,0,0-1.2-.26c-2.41,0-5.09,2.94-6.3,4.95a24.52,24.52,0,0,1-1.34,2.55,19.27,19.27,0,0,0-1.47,2.41.73.73,0,0,1-.27.54,7.39,7.39,0,0,0-1.74,3.21,6.13,6.13,0,0,1-.81,1.75c-1.07,1.2-.8,2.27-1.34,3.35A12.84,12.84,0,0,0,325.18,562.65Z"/><path class="cls-8" d="M384.27,556c0,1.21-.67,3.48-5.62,8.31-2.69,2.54-9.79,4.15-12.33,4.69a1.42,1.42,0,0,0-.81.27,16.66,16.66,0,0,1-.8,4.95c-.8,2.82-1.34,3.89-1.61,4a.73.73,0,0,0-.27.54,16.77,16.77,0,0,1-2.41,3.35c-.27,0-.4,0-.4.13a.29.29,0,0,1-.27.27c-.13,0-.4.14-.4.27s0,.4-.27.54l-.54.67a2.62,2.62,0,0,1-1.2.93,13.09,13.09,0,0,1-7,2.28A4.28,4.28,0,0,1,347,586a3,3,0,0,1-.94-.81l-.67-.67a.43.43,0,0,1-.4-.4c0-.27-.27-.54-.54-.8a5.21,5.21,0,0,1-1.34-2.55l-.4-2.55a7.59,7.59,0,0,1-.4-1.87,1.91,1.91,0,0,0-.27-.54c-.13,0-.13,0-.13-.13a.49.49,0,0,1,.13-.4,1.41,1.41,0,0,0,.14-.67c-.27-.14-.27-.81-.27-1.21s0-.8.27-.8a2.53,2.53,0,0,0,.93-.27,8.52,8.52,0,0,1,2.28-.27,13.05,13.05,0,0,0,2.68-.54,4.66,4.66,0,0,1,1.34-.4,2.39,2.39,0,0,0,.94-.27,3.44,3.44,0,0,1,1.34-.26c.4,0,.94-.27.94-.41a1.14,1.14,0,0,1,.8-.26l.81-.14a5.32,5.32,0,0,1,1.6-.53l1.48-.67a5.58,5.58,0,0,1,2-.41c.13,0,.13-.13.13-.53a9.15,9.15,0,0,0-.13-1.88,19.19,19.19,0,0,1-.67-2.54A6.34,6.34,0,0,0,358,561c-.14,0-.4-.27-.4-.67l-.41-.8a1.79,1.79,0,0,1-.26-1.07,4.73,4.73,0,0,0-.67-1.61,2,2,0,0,1-.54-.81c0-.53-.4-1.47-.67-1.47s-.13-.27-.13-.54a1.08,1.08,0,0,0-.27-.67,57.58,57.58,0,0,1-2.28,5.36,3,3,0,0,1-2,1.21h-.13a1.86,1.86,0,0,1-.41-1.21c0-.26,0-.4.14-.53l.67-1.48a51.51,51.51,0,0,0,3.21-9v-2.95c0-1.07,0-2,.14-2a2.32,2.32,0,0,0,.27-1.21,8.07,8.07,0,0,1,.8-3c.13,0,.27-.26.4-.53.14-.81.67-1.48,1.07-1.48.14,0,.41-.26.67-.53.41-.4.67-.54.94-.54a.84.84,0,0,0,.54-.13c0-.14.4-.14.53-.14,1.08.27,1.48.67,1.61,1.34a2.87,2.87,0,0,1,.14,1.21,8.48,8.48,0,0,1-.67,3.48,1.91,1.91,0,0,0-.27,1.21c0,.94.13,2,.13,3a8.7,8.7,0,0,0,.27,2.68c.13,0,.27.67.4,1.34l.4,2.14a3.57,3.57,0,0,1,.41,1.34,1,1,0,0,0,.26.67c.14,0,.27.27.27.54a6.44,6.44,0,0,0,.4,1.2,3.28,3.28,0,0,1,.27.94c0,.27.14.54.27.54s.4.67.67,1.2a3.11,3.11,0,0,0,.4,1.21c.14,0,.27.54.27,1.07l.4,1.48a3.93,3.93,0,0,1,.27,1.47c.27,1.61.27,2.68.4,3.48,2.68-.13,7.51-1.87,11.12-4.28a14.64,14.64,0,0,0,5.5-7c.4-1.21.67-1.21,1.2-1.21S384.27,554.74,384.27,556ZM360,571.9a6.34,6.34,0,0,0-.14-1.88c-1.34.54-2.94.54-3.61,1.07a3.07,3.07,0,0,1-1.21.54,19.22,19.22,0,0,0-3.48,1.07,22.46,22.46,0,0,1-3.89,1.07,6.14,6.14,0,0,0-2.41,1.48c-.14.13-.27.26-.4.26a31.82,31.82,0,0,1,.8,4,7.09,7.09,0,0,0,6.43,4.56,5.59,5.59,0,0,0,2.15-.54c.13-.13,4-4,3.88-4,.27,0,1.21-2.81,1.21-3.48l.27-1.07C359.75,575,359.88,574,360,571.9Z"/><path class="cls-8" d="M388.42,584.36c-.8,0-5.22-3.62-6.43-6.17a13.67,13.67,0,0,1-1.87-4.69c0-.4-.14-.93-.14-1.07a13.66,13.66,0,0,1-.27-3.35,33,33,0,0,1,.41-6l.26-2.14a11.67,11.67,0,0,1,.81-4,3.48,3.48,0,0,0,.27-1.61s.93-3.62,1.07-4.42c.27-2,.94-2.55,1.34-4.69,0-.14,1.21-4.42,1.21-5,.67-2.55,1.2-3.75,1.47-5.36l1.61-5.9a77.84,77.84,0,0,1-7.91.54l-3.21-.4c-.94-.14-1.35-1.74-1.35-2.42s.27-.8.81-.8c.27,0,.67.13,1.07.13,1.61.14,2.95.27,4.15.27a46.16,46.16,0,0,0,7.51-.8l.8-1.61v-1.07c2.68-8,2.68-8.31,2.68-8.58.14-.67.41-1.34.67-1.34a.73.73,0,0,0,.41-.67,12.12,12.12,0,0,1,2.27-3.88l.94-.67c.27-.27,1.21-.27,2.15-.27,1.2,0,1.6.13,2,.67a3.22,3.22,0,0,1,.53,2,8.19,8.19,0,0,1-.4,2.41c-.27.94-.4,2.15-.54,2.55l-.13,1.07-.4,1.2-.81,3.89a10,10,0,0,0-.53,2.68l.67.54a48.62,48.62,0,0,1,9.11-1.21,6.34,6.34,0,0,1,1.47.14c1.34.13,2.95.4,2.95,1.34a5.52,5.52,0,0,1,.14.66c0,.41-.14.94-.68.94A54.57,54.57,0,0,0,397,529.15a9.64,9.64,0,0,0-.4,1.61V531a.76.76,0,0,1-.14.53,10.92,10.92,0,0,0-1.07,3.48,2,2,0,0,1-.4,1.08,8.41,8.41,0,0,0-.53,1.87l-1.08,3.89a27.11,27.11,0,0,0-.8,3c0,.4,0,.67-.27.8a14.85,14.85,0,0,0-1.07,3.75,30.92,30.92,0,0,1-1.21,4.16l-.67,2.68c-.67,2.68-1.2,5.49-1.87,8.17a47.58,47.58,0,0,0-.67,7.37c0,3.75.8,7,2.68,8.71.26.14.4.54,2.14.54-.27-.14,4.56-.4,8.85-8.31a52.71,52.71,0,0,1,3.88-6,7.62,7.62,0,0,0,1.21-2.14,5.26,5.26,0,0,1,1.07-2,1.22,1.22,0,0,0,.4-.67s1.61-4.16,2.55-5.9a1,1,0,0,1,.67-.27,1.44,1.44,0,0,1,1.47,1.34.51.51,0,0,0-.13.4c-.14.54-.14.67-.27.81-1.61,3.21-5.23,10.58-6,11.66L404,572.16a16.82,16.82,0,0,1-2.14,3,6.9,6.9,0,0,0-1.34,1.88c-3.22,6.43-6.7,7.64-9.92,7.64A7.44,7.44,0,0,1,388.42,584.36Z"/><path class="cls-8" d="M409.46,588.78c-.4,0-3.35-2.95-4.29-4.29a15.87,15.87,0,0,1-2-5.63c0-.13.14-.26.14-.4a13.09,13.09,0,0,0-.4-2,5.76,5.76,0,0,0-.14-.67l.81-5.49a12.88,12.88,0,0,1,.67-2.68,1,1,0,0,0,.13-.54,9.24,9.24,0,0,1,1.34-2.54,10.44,10.44,0,0,0,1.07-2.15,6,6,0,0,1,1.07-2.28l1.75-3.21a14.48,14.48,0,0,1,1.34-2.41c.26-.27.53-.54.53-.67,0-.41.54-1.08,1.07-1.61,1.08-1.21,1.34-1.48,1.34-1.88s4.29-4.82,4.56-5c1.47-1.07,4.56-3.75,8.31-3.75a7.6,7.6,0,0,1,4,1.07c1.47.81,2.68,2.42,3.62,5a5.49,5.49,0,0,1,.53,2.15,4,4,0,0,1-.27,1.07,3.65,3.65,0,0,1-.67,1.61l-.4,1.2c-.94,2-4.69,6.3-5.09,6.3-2.68,2.41-3.22,2.41-7.37,4.69-2.68,1.21-3.75,1.61-5.49,1.74l-2.28.14-.67,1.47c-.67,1.34-.81,2.28-1.88,7.37l-.4,1.74a18.48,18.48,0,0,0-.4,3.22,8.44,8.44,0,0,0,.94,3.21c0,.14.13.14.13.27.94,1.88,2.81,3.49,4.42,3.49a12.77,12.77,0,0,0,5.63-1.75c3.89-2.14,9.92-8,10.72-9.64a6,6,0,0,1,1.61-1.61,5.58,5.58,0,0,0,1.47-1.61,54,54,0,0,1,3.89-6,7.39,7.39,0,0,0,1.2-2.14,5.25,5.25,0,0,1,1.08-2,1.29,1.29,0,0,0,.4-.67,52.41,52.41,0,0,1,2.28-5.77,1,1,0,0,1,.8-.53c.54,0,1.61.53,1.61,1.47a.48.48,0,0,0-.14.4v.41c-1.47,2.94-5.49,11-6.29,12.06l-1.34,2.27a16.85,16.85,0,0,1-2.15,3,7.41,7.41,0,0,0-1.34,1.88,84.33,84.33,0,0,1-8.57,9.38c-.81.67-1.75,1.2-2.55,1.87a16.65,16.65,0,0,1-3.75,1.75,9.14,9.14,0,0,1-4.16,1.07C413.62,591.06,410.67,588.78,409.46,588.78Zm8.71-26.13c.81-.4,1.88-.8,2.28-1.07,4.69-2.55,6.3-3.62,9.25-8a8.33,8.33,0,0,0,1.47-4.29,4.38,4.38,0,0,0-2.14-3.89,2.07,2.07,0,0,0-1.21-.26c-2.41,0-5.09,2.94-6.3,4.95a24.52,24.52,0,0,1-1.34,2.55,19.27,19.27,0,0,0-1.47,2.41.73.73,0,0,1-.27.54,7.39,7.39,0,0,0-1.74,3.21,5.85,5.85,0,0,1-.81,1.75c-1.07,1.2-.8,2.27-1.34,3.35A12.74,12.74,0,0,0,418.17,562.65Z"/><path class="cls-8" d="M441.35,581.81c-.4-.67-.93-1.34-1.2-1.34-.67,0-1.34-2.54-1.34-6.43a41.78,41.78,0,0,1,2.81-12.86l.27-1.08a9.7,9.7,0,0,1,.94-2.54c.53-.67.67-1.88.8-1.61s3.08-5.49,5.5-8c2.67-2.81,6.29-5.63,7.37-5.63a15.93,15.93,0,0,1,3.21-.94c4.42,0,6,1.88,8.58,6.17a4.88,4.88,0,0,1,.67,1.74c0,.27,0,.4.13.4s.81-.67,1.48-2.14c.8-1.74,1.2-2.28,2.54-2.82a10.71,10.71,0,0,1,3.22-.67,1.67,1.67,0,0,1,1.47.54c.14.13.14.4.14.8,0,1.48-.54,4.29-.94,4.29-.14,0-.27.27-.27.54s0,2.28-1.34,2.95a53.37,53.37,0,0,0-3.48,8.57c-.14,1.74-1.34,5.9-1.88,5.9a27.88,27.88,0,0,0-.4,4.55v2.42a16.88,16.88,0,0,0,.27,3.35,2.93,2.93,0,0,0,2.54,2.27c.54,0,3.49-2.68,4.29-4.28a6,6,0,0,1,1.61-1.61,5.58,5.58,0,0,0,1.47-1.61,54,54,0,0,1,3.89-6,7.39,7.39,0,0,0,1.2-2.14,5.25,5.25,0,0,1,1.08-2,1.29,1.29,0,0,0,.4-.67,52.41,52.41,0,0,1,2.28-5.77,1,1,0,0,1,.8-.53,3,3,0,0,1,1.07.4c.54.54.54.54.54,1.07a.48.48,0,0,0-.14.4v.41a107,107,0,0,1-6.29,12.06l-1.34,2.27a16.85,16.85,0,0,1-2.15,3,4.88,4.88,0,0,0-1.34,1.88c0,.27-.67,1.07-4.82,5.22-.81.67-1.61.67-2.95.81h-.54c-1.74,0-3.21-.4-3.21-.94,0-.27-.4-.54-.94-.67a4.79,4.79,0,0,1-2.81-2.81c0-.27-.27-.14-.54-.67-1.07-2.15-1.34-6.3-2.14-6.3-.27,0-.54.27-.67.67-.27.94-1.48,2.14-3.09,4.15a5.65,5.65,0,0,0-1.2,1.88c0,.27-.81.67-1.74,1.47-1.61,1.48-4.16,4.69-7.51,4.69C445.1,584.49,442.16,583.15,441.35,581.81Zm11.26-3.21a2.87,2.87,0,0,1,1.34-1.21,1.4,1.4,0,0,0,.8-.67,2.86,2.86,0,0,1,.94-1.07,8.82,8.82,0,0,0,1.61-2.15,5.66,5.66,0,0,1,1.34-1.87,1.58,1.58,0,0,0,.67-.81,3.45,3.45,0,0,1,.8-1.6,48.43,48.43,0,0,0,3.35-7.64c0-.27-.13-.27-.26-.27a3.2,3.2,0,0,1-.94-.4c-.27-.14-.4-.27-.4-.54s0-.27.26-.53a18.56,18.56,0,0,0,3.76-6.44,8.47,8.47,0,0,0,.53-2.14c0-3.08-2.41-7.77-5.22-7.77h-.81a2.21,2.21,0,0,0-1.88.67,9.15,9.15,0,0,1-1.74,1.47c-.53.27-4.42,6.17-4.42,7a1.08,1.08,0,0,1-.54.8,3.76,3.76,0,0,0-.8,1.48c-.54,1.34-.94,2.81-1.47,4.15-2.95,8.18-3.89,13.27-3.89,18.09,0,2.28,0,2.68.94,3.35a4.24,4.24,0,0,0,1.47.81C449,581.28,452.07,579.27,452.61,578.6Z"/><path class="cls-8" d="M553.91,501c0,2.54-.67,5.76-2.14,10.45-.94,2.95-1.07,4.29-1.74,5a12.27,12.27,0,0,0-1.88,3,5,5,0,0,1-1.34,1.87,17.54,17.54,0,0,0-2.55,3c-1.87,2.81-2.54,2.41-2.54,3.48,0,.54-4.69,6.17-4.83,6.3-.8.27-1.87,2.82-5.36,6.17a41.06,41.06,0,0,0-4.95,5.49c0,.27-3.62,10.32-4.56,13.67-.4,1.47-.8,5-1.34,7.77a31.33,31.33,0,0,0-.4,4.29c0,1.74.13,2.95.27,4.69a19.93,19.93,0,0,0,1.07,4.69c.13.94.53,1.21,1.07,1.21a1.6,1.6,0,0,0,.8-.14c.54,0,3.49-2.68,4.29-4.29a6.12,6.12,0,0,1,1.61-1.6,5.55,5.55,0,0,0,1.47-1.61,53.12,53.12,0,0,1,3.89-6,7.56,7.56,0,0,0,1.21-2.15,5.29,5.29,0,0,1,1.07-2,1.16,1.16,0,0,0,.4-.67,51.71,51.71,0,0,1,2.28-5.76,1,1,0,0,1,.8-.53c.54,0,1.61.53,1.61,1.47a.5.5,0,0,0-.13.4v.4c-1.48,3-5.5,11-6.3,12.06l-1.34,2.28a16.85,16.85,0,0,1-2.15,3,4.81,4.81,0,0,0-1.34,1.88c0,.26-.67,1.07-4.82,5.22a7.46,7.46,0,0,1-3.89,1.21,7.74,7.74,0,0,1-3.75-1.21c-2.14-1.2-3.21-4.55-4.55-6.7-.27-.4-.54-1.61-.94-2.28a3.63,3.63,0,0,1-.67-2.41c0-3.88.4-5.89.4-6.7,0-.4-.13-.4-.27-.53s-6,8.3-5.89,8.3c-.14.41-.41.54-.54.81l-.8,1.61c-.14.26-5.63,5.62-6.57,6.29-3.22,2-5.23,2.68-6.83,2.68a6.18,6.18,0,0,1-3.35-1.07c-.67-.13-1.75-2.14-2.68-5a11.41,11.41,0,0,1-1.08-4.69c0-.53.14-1.07.14-1.74.27-2.95.8-5.22.8-7.5,0-.14.27-.4.27-.67a5.21,5.21,0,0,0,.8-2.28,12.36,12.36,0,0,1,2.28-5.63c1.34-3,1.74-3.75,7.64-10.72a10.25,10.25,0,0,1,5.09-3.48,10.45,10.45,0,0,1,6.17-1.88c2.81,0,6,1.74,7,4.69a24.17,24.17,0,0,1,1.08,3.75c0,.81.26,1.21.53,1.21s.54-.27.67-.94l.4-1.61a43.13,43.13,0,0,0,2.68-7.77l.67-2.41a2.7,2.7,0,0,0,.81-1.88,13.64,13.64,0,0,1,1.07-3.48c.8-2.14,1.47-4.29,2.28-6.43,1.47-4,5-13.14,5.89-13.14.14,0,.27-.4.27-.8,0-1.34,1.74-4,2.28-4,.13,0,.13-.13.13-.27,0-1.2,4.43-7.37,5.9-8.31a5.54,5.54,0,0,0,1.47-1.07c0-.53,3.49-3,5.36-3.08.67,0,1.34-.13,2-.13C552.3,494.58,553.91,496.05,553.91,501Zm-40.73,49.85a6.25,6.25,0,0,0-.14-1.74l-.27-1.75c0-.26-.4-.53-.8-1.2a3.44,3.44,0,0,1-.54-1.34,11.52,11.52,0,0,1-1.07-.94,3.77,3.77,0,0,0-2.28-.94c-1.6,0-1.87.67-3.21,1.88a9.69,9.69,0,0,0-1.88,2.28,18.3,18.3,0,0,0-1.74,2c-.54.93-1.74,2.68-1.74,2.81,0,.54-.54,1.07-.94,1.47-1.61,1.61-3.89,7.37-4.42,10.32,0,.14-1.88,7.24-1.74,7.24v2.95a25.6,25.6,0,0,0-.41,4.42,4.41,4.41,0,0,0,.67,2.95,1.25,1.25,0,0,0,.94.4c.4,0,.67-.14,1.07-.14,4.16,0,12.2-11.25,14.88-16.08a3.53,3.53,0,0,1-1.74.54c-.41,0-.54-.13-.54-.4s.4-.81,1.21-1.07a3.08,3.08,0,0,0,1.34-1.21l.93-1.61C512,559.84,513.18,554.21,513.18,550.86Zm38.19-49.32a4.77,4.77,0,0,0-1.61-3.88c-.67-.54-1.34-1.21-1.61-1.21-1.07,0-3.89,3.35-5.36,5.9L541.18,505c-.27.27-.94,1.61-2.68,5.89l-1.87,4.7c-1.08,2.81-3.49,8.84-4.16,11.38l-1.74,6.57c-.67,2.28-1.61,4.16-1.61,4.56s.14.67.4.67c.67,0,2.42-1.74,4.43-4.83.4-.67,2-2,2-2.14s5.89-8.31,5.89-8.17a12,12,0,0,1,2.95-3.76c1.61-1.34,4.29-7.9,4.29-8.71a6,6,0,0,1,.54-2.14A23.72,23.72,0,0,0,551.37,501.54Z"/><path class="cls-5" d="M175.48,591.16l-1.87-1.74c.13-1.34.13-2.68.27-4,.13-2.28.26-4.15.53-4.42a.73.73,0,0,0,.27-.67v-.67c0-1.47.94-6.83,1.34-9.25l.4-2.68c.4-1.87,2-10.31,2.41-11a2.56,2.56,0,0,0,.14-1.21c0-.27,0-.54.13-.54s.54-.67.54-1.47.13-1.34.27-1.34.13-.27.13-.54v-.4l-.27-.94-1.87.27c-1.34.14-10.46.67-14.07.67-7.91,0-9.38-.94-11.39-1.34-.54.14-.67.67-1.08,1.74a11.36,11.36,0,0,1-.8,2.15,8.21,8.21,0,0,0-.54,2.54,8,8,0,0,1-.53,2.15,19.62,19.62,0,0,0-.81,2.95l-1.34,5a72,72,0,0,0-2,12.06,57,57,0,0,1-2.14,10.72,1.9,1.9,0,0,1-1.88.94,3.73,3.73,0,0,1-2.14-.67,3.76,3.76,0,0,0-1.21-.67c-.4,0-.93-1.47-.93-2.54a1.77,1.77,0,0,1,.13-.81,26.11,26.11,0,0,0,.54-5.09c.13-2.14.26-4.15.53-4.42a16.07,16.07,0,0,0,.81-3.49,23,23,0,0,1,.93-4,7.05,7.05,0,0,0,.54-2.54c0-.67.13-2.82.67-3.35a4.33,4.33,0,0,0,.4-2.15c0-1.47,2.15-9.51,2.68-12.06-1.2-.8-5.09-2.54-15.27-2.54-6.44,0-11.26,3.48-11.8,8a3.78,3.78,0,0,0-.13,1.2,4.92,4.92,0,0,0,2.28,4.16,3,3,0,0,0,2,.94,2.54,2.54,0,0,0,.94-.14l1.34-.27c.13.14.26.27.26.41s-.26.53-.26.8c0,.54-.54,1.74-2.95,1.74-1.74,0-2.15-.67-3.35-1.07-2.28-1.88-4.43-4.56-4.43-7.77a7,7,0,0,1,.27-1.61c1.48-6.3,9.79-9.25,16-9.25,5.09,0,10,2.42,15.54,2.42.54,0,.67-.14.94-.81l.94-4.15a8.73,8.73,0,0,1,.54-2.82,19,19,0,0,0,.8-3.21v-.27a5.45,5.45,0,0,1,.54-2.28,4.6,4.6,0,0,0,.53-1.61l.4-1.87a10,10,0,0,0,.27-2,2.64,2.64,0,0,1,.4-1.61,15.89,15.89,0,0,0,.81-3.49,17.06,17.06,0,0,1,.8-3.48,7.75,7.75,0,0,0,.54-2.81c.27-2.68,1.47-5.9,2.68-7.11a3.39,3.39,0,0,1,2.28-.8,2.59,2.59,0,0,1,1.2.27c.67.4.94,2,.94,4.15a43.71,43.71,0,0,1-.4,5.5c-.14,1.34-.4,2.68-.54,4a11.4,11.4,0,0,1-.53,2.27,13.83,13.83,0,0,0-.54,2.95,6,6,0,0,1-.54,2.55.28.28,0,0,0-.26.27c0,.26.13.53.13.8a10,10,0,0,1-.27,1.88l-1.2,4.55a38.22,38.22,0,0,1-1.34,4.16,10.56,10.56,0,0,0-.81,4.55v2.42l1.07.13a73.57,73.57,0,0,0,12.47,1.21c6.16,0,12.19,0,13.53-.67.8-.41,2-2.68,2.81-8.45a10.22,10.22,0,0,1,.54-2.14c.27-.67.13-.8.8-3.89A7.92,7.92,0,0,1,185,531a6.8,6.8,0,0,0,.67-2.55,25.62,25.62,0,0,1,.8-3.75l1.21-3.62.8-2.54a5.67,5.67,0,0,0,.4-2,19.93,19.93,0,0,1,.81-3.36l1.2-4c.67-2.42.94-2.82,1.88-3a11,11,0,0,1,2-.14,1.42,1.42,0,0,1,1.34.54c.27.4.4,2.68.4,5a19,19,0,0,1-.4,5,9.64,9.64,0,0,0-.54,1.74l-.53,2.94a72.39,72.39,0,0,1-2.28,9.79,13.64,13.64,0,0,0-.8,2.81c-2.55,10.59-2.68,11.66-3.76,16.08l-1.2,5c-.4,1.61-.67,3.22-1.07,4.82-1.34,6-1.88,9-2.42,10.32a16.36,16.36,0,0,0-.8,3.75c-.13,1.34-.54,3.22-.67,4.16-.54,3.62-.94,7.37-1.47,11l.26,1.6a2.56,2.56,0,0,1-.8,1.61,2.08,2.08,0,0,1-1.61.94C177.63,593,176.82,592.37,175.48,591.16Z"/><path class="cls-5" d="M294.48,590.9c-.14-.27-.67-.41-1.21-.41s-1.47-.4-2.68-1.87a8,8,0,0,1-1.88-2.68,4.06,4.06,0,0,0-.67-1.34c-.67-.94-1.07-3.62-1.07-6.7,0-1.74.27-3.62.4-5.23.14-1.2.54-2.95.67-4s.54-3.21.67-5a23.89,23.89,0,0,0,.81-4.28,13.51,13.51,0,0,1,.67-2.55,43.78,43.78,0,0,0,1.2-7.5c0-3.49-.13-4.29-.53-4.29-3.76,0-7.64,6.43-11,11.25l-.81,1.08-.66,1.34c0,.4-.27.8-.41.8s-.4.27-.4.54a2.68,2.68,0,0,1-.8,1.2,2.93,2.93,0,0,0-.94,1.61,3.9,3.9,0,0,1-.81,2,4.47,4.47,0,0,0-.93,1.74,2,2,0,0,1-.27.81c-.54.8-.94,1.74-1.48,2.54-2.54,5.23-4,8.44-5.36,10.45-.26.41-.53.67-.53.94a.35.35,0,0,1-.4.4.91.91,0,0,0-.81.54,1.23,1.23,0,0,1-.94.67c-2,0-4.15-2.55-4.15-4.42,0-.81-.13-1.61-.13-2.55a50.47,50.47,0,0,1,1.47-12.33,27.93,27.93,0,0,0,.54-4.42c0-.4.26-1.47.26-2.28l.14-.53a26.67,26.67,0,0,0,.67-4.56c0-1.47-.27-2.28-.54-2.28a2.47,2.47,0,0,0-.67.27c-1.2.67-2.41,1.74-2.41,2.41a3.11,3.11,0,0,1-1.21,1.61c-.67.54-1.2,1.07-1.2,1.34a32.21,32.21,0,0,1-3.08,3.89c0-.54-1.88,3-2.15,3.21a3.88,3.88,0,0,0-1.2,1.88c0,.13-2.42,5.09-2.68,5.36a2.15,2.15,0,0,0-.67,1.21l-.67,1.34a3.22,3.22,0,0,0-.67,1.47,4.07,4.07,0,0,1-.81,1.47,7.11,7.11,0,0,0-1.07,2.28c-.13.81-.4,1.34-.54,1.34s-.26.81-.4,1.74c-.27,2.15-.67,2.95-2.14,2.95-.4,0-1.07.27-1.48.27a2.33,2.33,0,0,1-1.34-.4,9.33,9.33,0,0,0-2.14-.94c-.54-.13-.8-.13-.8-.54a2,2,0,0,1,.13-.8c0-.54-.27-1.21-.27-1.74a6.15,6.15,0,0,1-.13-.67c0-.27.13-.67.13-1.07,0-4.69.94-6.57,1.21-7.24,0-.4.13-.4.13-.67a1.77,1.77,0,0,1,.54-1.34V568a24.65,24.65,0,0,1-.14-3c.54-2,.27-3.48.27-5.89a3.86,3.86,0,0,0-1.07-2.68,1.52,1.52,0,0,0-.94-.27c-1.47,0-8.71,3.35-9.91,4s-2.28,1.34-2.28,1.61-.4.53-.67.53a2.24,2.24,0,0,1-.67,1.61c-.81,1.88-1.48,3.89-2.28,5.76a16.79,16.79,0,0,0-2,3.35c-.27.81-.94,1.21-3.22,4.83-2.81,4.42-5.76,6.56-8.57,7.5-.54.27-1.07.4-1.07.27s-.14.13-.41.13c-6.56,0-9.91-3.08-10.31-9.78l-.14-2.54c1.07-4.83,2.82-8.71,5.23-11.26l.13-1.21-1.47-1.34a10.93,10.93,0,0,1-2.15-2.27,13.64,13.64,0,0,1-1.2-5,7.67,7.67,0,0,1,.27-1.88c.26-.94.53-1.74.67-1.74s.26-.27.26-.67c3.09-6.3,9.25-10.72,15-10.72a13.2,13.2,0,0,1,11.26,6.83c1.07,1.88,1.74,3.09,1.74,4.16V550c0,4.15.13,6.56,0,8v.4c0,.53.13.8.4.8s.67-.27,1.34-.8,2.15-.81,3.22-1.34,2.54-1.07,2.95-1.34a10.22,10.22,0,0,1,2.14-.81,3.68,3.68,0,0,0,1.61-.53,11.72,11.72,0,0,1,3.21-.27c4,0,5.1.54,5.77,4.42a40.56,40.56,0,0,1,.13,5.76v1.08c-.13.93-.4,1.87-.54,2.81a7.62,7.62,0,0,0-.4,2.14c0,.27,0,1.08.54,1.08a.56.56,0,0,0,.53-.54,2.6,2.6,0,0,1,.54-1.07l2.55-4.69c.26-.81.53-1.74.8-1.74,2-2.82,3.35-5.36,4.29-6.3a5.83,5.83,0,0,0,1.2-1.48,7.79,7.79,0,0,1,1.48-1.87c0-.54,3.62-4.42,3.88-4.83a.92.92,0,0,1,.67-.53,5.36,5.36,0,0,0,1.48-.81,3.31,3.31,0,0,1,2.14-.8h.54c1.61,0,3.75.8,3.75,1.61,0,.13.13.4.27.4s.53.54.94,1.34a6,6,0,0,1,.53,3.22v1.87s-.67,6.17-1.2,10.19c-.27,2.27-.54,4.55-.54,5.36v.8l1.07-1.21a5.11,5.11,0,0,0,1.34-2.14,8,8,0,0,1,.94-1.88l5-8.17c3.08-5,8.31-13.27,10-13.27a3,3,0,0,0,1.34-.8,3.94,3.94,0,0,1,1.2-.94,2.37,2.37,0,0,0,.94-.67,3.13,3.13,0,0,1,2.28-.67,8,8,0,0,1,3.75,1.07,3.47,3.47,0,0,1,2,2.68A23.36,23.36,0,0,1,298,551a81.46,81.46,0,0,1-1.34,14.21,37.46,37.46,0,0,0-.94,4.42,6.53,6.53,0,0,1-.53,2.14,20.26,20.26,0,0,0-.67,5.77v4.28c0,2.82.13,4.83,1.33,4.83,4.16,0,8.85-8.85,9.79-10.59.8-1.47,3.21-7.64,3.88-8.31a7.48,7.48,0,0,0,1.21-2.14,5.34,5.34,0,0,1,1.07-2,1.22,1.22,0,0,0,.4-.67,30.21,30.21,0,0,1,2.28-5.76,1,1,0,0,1,.81-.54,1.58,1.58,0,0,1,1.47,1.48v.8c-1.47,3-5.49,12.73-6.3,13.8a8.65,8.65,0,0,1-1.34,2.28c-.13.13-3.88,10.32-9.65,15.14-.8.67-1.6.67-2.95.81a1.46,1.46,0,0,1-1.07.26C295,591.16,294.61,591.16,294.48,590.9Zm-76.39-28.81c2.55-1.34,2.15-1.34,2.68-3.49a10,10,0,0,0,.27-3c0-.8,0-2-.13-3.61-.27-4.43-.67-5.36-1.48-6.17a1.52,1.52,0,0,1-.4-.8c0-.94-3.62-5-8.71-5a9.91,9.91,0,0,0-2,.27,13.2,13.2,0,0,0-4.15,1.47c-3.35,2.55-5.23,3.89-5.23,11.26.67,4,2.15,7.5,2.82,5.09.13-.4.67-2.14,1.2-2.28-.53.14,2.82-2.95,3.49-3.21a3.88,3.88,0,0,1,2-.67,2.71,2.71,0,0,1,1.87.8c1.34,1.34.67,2.28.14,2.28a.61.61,0,0,0-.54.4c0,.27-.4.8-1.07,1.47-1.07,1.08-2.68,3.76-2.68,4.43a3.72,3.72,0,0,0,1.07,1.07l4.29.67C215.28,563.16,216.08,563.16,218.09,562.09Zm-12.86,20.36a3.25,3.25,0,0,0,1.47-.53,40,40,0,0,0,5.36-5c0-.13.27-.4.41-.67.4-.8,3.21-4.82,3.61-5.63l.94-1.87c.81-1.34,2.28-4.29,2.15-4.56-.27-.54-1.48.4-6.17,1.34a34.08,34.08,0,0,1-3.88.27c-4.69,0-4.83-.81-5.1-.4a16.73,16.73,0,0,0-3.21,9.11,2.82,2.82,0,0,1-.4,1.74c-.14.13.4.94.4,1.74a5.69,5.69,0,0,0,1.07,4c.54.67,2,1.07,2.28.81A1.94,1.94,0,0,1,205.23,582.45Z"/><path class="cls-5" d="M314.17,589.82c-.4,0-3.35-2.94-4.29-4.28a16,16,0,0,1-2-5.63c0-.14.14-.27.14-.4a12,12,0,0,0-.41-2,5.69,5.69,0,0,0-.13-.67l.8-5.5a14.69,14.69,0,0,1,.67-2.68,1,1,0,0,0,.14-.53,9.15,9.15,0,0,1,1.34-2.55,10.64,10.64,0,0,0,1.07-2.14,6,6,0,0,1,1.07-2.28l1.75-3.22a14.93,14.93,0,0,1,1.34-2.41c.26-.27.53-.54.53-.67,0-.4.54-1.07,1.07-1.61,1.08-1.2,1.34-1.47,1.34-1.87s4.29-4.83,4.56-5c1.47-1.07,4.56-3.75,8.31-3.75a7.51,7.51,0,0,1,4,1.07c1.47.8,2.68,2.41,3.62,5a5.42,5.42,0,0,1,.53,2.14,3.88,3.88,0,0,1-.27,1.07,3.54,3.54,0,0,1-.67,1.61l-.4,1.21c-.94,2-4.69,6.29-5.09,6.29-2.68,2.42-3.22,2.42-7.37,4.69-2.68,1.21-3.75,1.61-5.49,1.75l-2.28.13-.67,1.47c-.67,1.34-.81,2.28-1.88,7.37l-.4,1.75a18.39,18.39,0,0,0-.4,3.21,8.49,8.49,0,0,0,.94,3.22c0,.13.13.13.13.27.94,1.87,2.81,3.48,4.42,3.48a12.87,12.87,0,0,0,5.63-1.74c3.89-2.15,9.92-8,10.72-9.65a6,6,0,0,1,1.61-1.61,5.58,5.58,0,0,0,1.47-1.61,54,54,0,0,1,3.89-6,7.26,7.26,0,0,0,1.2-2.14,5.33,5.33,0,0,1,1.08-2,1.29,1.29,0,0,0,.4-.67,51.71,51.71,0,0,1,2.28-5.76,1,1,0,0,1,.8-.54c.54,0,1.61.54,1.61,1.48a.47.47,0,0,0-.14.4v.4c-1.47,3-5.49,11-6.29,12.06l-1.34,2.28a16.85,16.85,0,0,1-2.15,2.95,7.25,7.25,0,0,0-1.34,1.87,83.41,83.41,0,0,1-8.57,9.38c-.81.67-1.75,1.21-2.55,1.88a17.15,17.15,0,0,1-3.75,1.74,9.14,9.14,0,0,1-4.16,1.07C318.33,592.1,315.38,589.82,314.17,589.82Zm8.71-26.13c.81-.4,1.88-.8,2.28-1.07,4.69-2.54,6.3-3.62,9.25-8a8.3,8.3,0,0,0,1.47-4.29,4.37,4.37,0,0,0-2.14-3.88,2,2,0,0,0-1.21-.27c-2.41,0-5.09,3-6.3,5a24.72,24.72,0,0,1-1.34,2.54,18.28,18.28,0,0,0-1.47,2.42.7.7,0,0,1-.27.53,7.48,7.48,0,0,0-1.74,3.22,5.83,5.83,0,0,1-.81,1.74c-1.07,1.21-.8,2.28-1.34,3.35A12.43,12.43,0,0,0,322.88,563.69Z"/><path class="cls-5" d="M382,557c0,1.21-.67,3.49-5.63,8.31-2.68,2.55-9.78,4.16-12.33,4.69a1.5,1.5,0,0,0-.81.27,16.74,16.74,0,0,1-.8,5c-.8,2.81-1.34,3.88-1.61,4a.7.7,0,0,0-.26.53,16.13,16.13,0,0,1-2.42,3.35c-.27,0-.4,0-.4.14a.29.29,0,0,1-.27.27c-.13,0-.4.13-.4.26s0,.41-.27.54l-.53.67a2.8,2.8,0,0,1-1.21.94,13.09,13.09,0,0,1-7,2.28,4.28,4.28,0,0,1-3.35-1.21,3.14,3.14,0,0,1-.94-.8l-.67-.67a.44.44,0,0,1-.4-.41c0-.26-.27-.53-.53-.8a5.09,5.09,0,0,1-1.34-2.55l-.41-2.54a8.26,8.26,0,0,1-.4-1.88,2,2,0,0,0-.27-.53c-.13,0-.13,0-.13-.14a.5.5,0,0,1,.13-.4,1.41,1.41,0,0,0,.14-.67c-.27-.13-.27-.8-.27-1.21s0-.8.27-.8a2.39,2.39,0,0,0,.94-.27,8.87,8.87,0,0,1,2.27-.27,13,13,0,0,0,2.68-.53,4.35,4.35,0,0,1,1.34-.4,2.57,2.57,0,0,0,.94-.27,3.29,3.29,0,0,1,1.34-.27c.4,0,.94-.27.94-.4a1.09,1.09,0,0,1,.8-.27l.81-.13a5.07,5.07,0,0,1,1.61-.54l1.47-.67a5.7,5.7,0,0,1,2-.4c.13,0,.13-.14.13-.54a9.06,9.06,0,0,0-.13-1.87,19,19,0,0,1-.67-2.55,6.24,6.24,0,0,0-.67-2.14c-.13,0-.4-.27-.4-.67l-.4-.81a1.66,1.66,0,0,1-.27-1.07,4.54,4.54,0,0,0-.67-1.61,2.07,2.07,0,0,1-.54-.8c0-.54-.4-1.48-.67-1.48s-.13-.26-.13-.53a1,1,0,0,0-.27-.67,57.58,57.58,0,0,1-2.28,5.36,3,3,0,0,1-2,1.2h-.13a1.83,1.83,0,0,1-.4-1.2c0-.27,0-.4.13-.54l.67-1.47a52.42,52.42,0,0,0,3.22-9v-3a5.8,5.8,0,0,1,.13-2,2.28,2.28,0,0,0,.27-1.2,8.07,8.07,0,0,1,.8-2.95c.14,0,.27-.27.4-.54.14-.8.67-1.47,1.08-1.47.13,0,.4-.27.67-.54s.67-.53.93-.53a.78.78,0,0,0,.54-.14c0-.13.4-.13.54-.13,1.07.27,1.47.67,1.6,1.34a2.84,2.84,0,0,1,.14,1.2,8.53,8.53,0,0,1-.67,3.49,1.85,1.85,0,0,0-.27,1.2c0,.94.13,2,.13,2.95a8.65,8.65,0,0,0,.27,2.68c.14,0,.27.67.4,1.34l.41,2.15a3.65,3.65,0,0,1,.4,1.34,1,1,0,0,0,.27.67c.13,0,.26.26.26.53a6,6,0,0,0,.41,1.21,3.54,3.54,0,0,1,.27.94c0,.26.13.53.26.53s.41.67.67,1.21a2.83,2.83,0,0,0,.41,1.2c.13,0,.26.54.26,1.08l.4,1.47a4,4,0,0,1,.27,1.47c.27,1.61.27,2.68.4,3.49,2.69-.14,7.51-1.88,11.13-4.29a14.58,14.58,0,0,0,5.49-7c.4-1.2.67-1.2,1.21-1.2S382,555.79,382,557Zm-24.26,16a6.85,6.85,0,0,0-.13-1.88c-1.34.54-2.95.54-3.62,1.08a3.11,3.11,0,0,1-1.21.53,19.46,19.46,0,0,0-3.48,1.07,23.33,23.33,0,0,1-3.89,1.08,6.1,6.1,0,0,0-2.41,1.47c-.13.13-.27.27-.4.27a29.83,29.83,0,0,1,.8,4,7.08,7.08,0,0,0,6.43,4.55,5.58,5.58,0,0,0,2.15-.53c.13-.14,4-4,3.88-4,.27,0,1.21-2.82,1.21-3.49l.27-1.07C357.45,576,357.59,575.08,357.72,572.94Z"/><path class="cls-5" d="M386.13,585.4c-.81,0-5.23-3.62-6.43-6.16a13.58,13.58,0,0,1-1.88-4.69,10.7,10.7,0,0,0-.14-1.07,13.89,13.89,0,0,1-.26-3.35,33.08,33.08,0,0,1,.4-6l.27-2.15a11.5,11.5,0,0,1,.8-4,3.42,3.42,0,0,0,.27-1.61s.94-3.61,1.07-4.42c.27-2,.94-2.54,1.34-4.69,0-.13,1.21-4.42,1.21-5,.67-2.54,1.2-3.75,1.47-5.36l1.61-5.89a77.62,77.62,0,0,1-7.91.53l-3.21-.4c-.94-.13-1.34-1.74-1.34-2.41s.27-.8.8-.8c.27,0,.67.13,1.07.13,1.61.13,3,.27,4.16.27a45.07,45.07,0,0,0,7.5-.81l.81-1.6v-1.08c2.68-8,2.68-8.3,2.68-8.57.13-.67.4-1.34.66-1.34a.76.76,0,0,0,.41-.67,12,12,0,0,1,2.28-3.89l.93-.67c.27-.27,1.21-.27,2.15-.27,1.2,0,1.61.14,2,.67a3.26,3.26,0,0,1,.53,2,8.09,8.09,0,0,1-.4,2.41c-.27.94-.4,2.15-.53,2.55l-.14,1.07-.4,1.21-.8,3.88a9.8,9.8,0,0,0-.54,2.69l.67.53a48.41,48.41,0,0,1,9.11-1.2,7,7,0,0,1,1.48.13c1.34.13,2.94.4,2.94,1.34a5.34,5.34,0,0,1,.14.67c0,.4-.14.94-.67.94a54.57,54.57,0,0,0-15.55,1.87,9.64,9.64,0,0,0-.4,1.61v.27a.85.85,0,0,1-.13.54,10.83,10.83,0,0,0-1.08,3.48,1.94,1.94,0,0,1-.4,1.07,8.36,8.36,0,0,0-.53,1.88l-1.08,3.88a27.11,27.11,0,0,0-.8,3c0,.4,0,.67-.27.81a14.85,14.85,0,0,0-1.07,3.75,31.29,31.29,0,0,1-1.2,4.15l-.67,2.68c-.67,2.68-1.21,5.5-1.88,8.18a48.73,48.73,0,0,0-.67,7.37c0,3.75.8,7,2.68,8.71.27.13.4.53,2.14.53-.26-.13,4.56-.4,8.85-8.31a52.71,52.71,0,0,1,3.88-6,7.48,7.48,0,0,0,1.21-2.14,5.34,5.34,0,0,1,1.07-2,1.22,1.22,0,0,0,.4-.67s1.61-4.15,2.55-5.9a1,1,0,0,1,.67-.26,1.44,1.44,0,0,1,1.47,1.34.49.49,0,0,0-.13.4c-.13.53-.13.67-.27.8-1.61,3.22-5.22,10.59-6,11.66l-1.34,2.28a16.32,16.32,0,0,1-2.14,2.95,6.76,6.76,0,0,0-1.34,1.87c-3.22,6.43-6.7,7.64-9.92,7.64A7.32,7.32,0,0,1,386.13,585.4Z"/><path class="cls-5" d="M407.16,589.82c-.4,0-3.35-2.94-4.28-4.28a15.81,15.81,0,0,1-2-5.63c0-.14.13-.27.13-.4a11.52,11.52,0,0,0-.4-2,5.34,5.34,0,0,0-.14-.67l.81-5.5a13.84,13.84,0,0,1,.67-2.68,1,1,0,0,0,.13-.53,9.42,9.42,0,0,1,1.34-2.55,10.64,10.64,0,0,0,1.07-2.14,5.92,5.92,0,0,1,1.08-2.28l1.74-3.22a14.93,14.93,0,0,1,1.34-2.41c.27-.27.53-.54.53-.67,0-.4.54-1.07,1.08-1.61,1.07-1.2,1.34-1.47,1.34-1.87s4.28-4.83,4.55-5c1.48-1.07,4.56-3.75,8.31-3.75a7.51,7.51,0,0,1,4,1.07c1.47.8,2.68,2.41,3.62,5a5.42,5.42,0,0,1,.53,2.14,4.2,4.2,0,0,1-.26,1.07,3.78,3.78,0,0,1-.67,1.61l-.41,1.21c-.93,2-4.69,6.29-5.09,6.29-2.68,2.42-3.21,2.42-7.37,4.69-2.68,1.21-3.75,1.61-5.49,1.75l-2.28.13-.67,1.47c-.67,1.34-.8,2.28-1.88,7.37l-.4,1.75a18.39,18.39,0,0,0-.4,3.21,8.49,8.49,0,0,0,.94,3.22c0,.13.13.13.13.27.94,1.87,2.82,3.48,4.42,3.48a12.87,12.87,0,0,0,5.63-1.74c3.89-2.15,9.92-8,10.72-9.65a6,6,0,0,1,1.61-1.61,5.31,5.31,0,0,0,1.47-1.61,54,54,0,0,1,3.89-6,7.48,7.48,0,0,0,1.21-2.14,5.21,5.21,0,0,1,1.07-2,1.22,1.22,0,0,0,.4-.67,51.71,51.71,0,0,1,2.28-5.76,1,1,0,0,1,.8-.54c.54,0,1.61.54,1.61,1.48a.49.49,0,0,0-.13.4v.4c-1.48,3-5.5,11-6.3,12.06l-1.34,2.28a16.85,16.85,0,0,1-2.15,2.95,7.25,7.25,0,0,0-1.34,1.87,83.41,83.41,0,0,1-8.57,9.38c-.81.67-1.74,1.21-2.55,1.88a16.92,16.92,0,0,1-3.75,1.74,9.14,9.14,0,0,1-4.15,1.07C411.32,592.1,408.37,589.82,407.16,589.82Zm8.71-26.13c.81-.4,1.88-.8,2.28-1.07,4.69-2.54,6.3-3.62,9.25-8a8.21,8.21,0,0,0,1.47-4.29,4.37,4.37,0,0,0-2.14-3.88,2,2,0,0,0-1.21-.27c-2.41,0-5.09,3-6.3,5a24.72,24.72,0,0,1-1.34,2.54,18.28,18.28,0,0,0-1.47,2.42.67.67,0,0,1-.27.53,7.48,7.48,0,0,0-1.74,3.22,6,6,0,0,1-.8,1.74c-1.08,1.21-.81,2.28-1.34,3.35A12.48,12.48,0,0,0,415.87,563.69Z"/><path class="cls-5" d="M439.05,582.86c-.4-.67-.93-1.34-1.2-1.34-.67,0-1.34-2.55-1.34-6.44a41.78,41.78,0,0,1,2.81-12.86l.27-1.07a9.76,9.76,0,0,1,.94-2.55c.54-.67.67-1.87.8-1.61s3.09-5.49,5.5-8c2.68-2.81,6.3-5.62,7.37-5.62a15.93,15.93,0,0,1,3.21-.94c4.42,0,6,1.87,8.58,6.16a5,5,0,0,1,.67,1.74c0,.27,0,.41.13.41s.81-.67,1.48-2.15c.8-1.74,1.2-2.28,2.54-2.81a10.71,10.71,0,0,1,3.22-.67,1.66,1.66,0,0,1,1.47.53c.14.14.14.41.14.81,0,1.47-.54,4.29-.94,4.29-.13,0-.27.26-.27.53s0,2.28-1.34,2.95a53.13,53.13,0,0,0-3.48,8.58c-.14,1.74-1.34,5.89-1.88,5.89a28.09,28.09,0,0,0-.4,4.56v2.41a16.8,16.8,0,0,0,.27,3.35,2.94,2.94,0,0,0,2.54,2.28c.54,0,3.49-2.68,4.29-4.29a6,6,0,0,1,1.61-1.61,5.31,5.31,0,0,0,1.47-1.61,54,54,0,0,1,3.89-6,7.48,7.48,0,0,0,1.21-2.14,5.21,5.21,0,0,1,1.07-2,1.22,1.22,0,0,0,.4-.67,51.71,51.71,0,0,1,2.28-5.76,1,1,0,0,1,.8-.54,3,3,0,0,1,1.07.4c.54.54.54.54.54,1.08a.49.49,0,0,0-.13.4v.4a107.61,107.61,0,0,1-6.3,12.06L481,573.21a16.85,16.85,0,0,1-2.15,2.95,4.8,4.8,0,0,0-1.34,1.87c0,.27-.67,1.07-4.82,5.23-.8.67-1.61.67-2.95.8h-.53c-1.75,0-3.22-.4-3.22-.94,0-.26-.4-.53-.94-.67a4.79,4.79,0,0,1-2.81-2.81c0-.27-.27-.13-.54-.67-1.07-2.14-1.34-6.3-2.14-6.3-.27,0-.54.27-.67.67-.27.94-1.48,2.15-3.08,4.16a5.47,5.47,0,0,0-1.21,1.87c0,.27-.81.67-1.74,1.48-1.61,1.47-4.16,4.69-7.51,4.69C442.81,585.54,439.86,584.2,439.05,582.86Zm11.26-3.22a3,3,0,0,1,1.34-1.21c.4-.13.81-.53.81-.67a2.8,2.8,0,0,1,.93-1.07,8.76,8.76,0,0,0,1.61-2.14,5.61,5.61,0,0,1,1.34-1.88,1.61,1.61,0,0,0,.67-.8,3.42,3.42,0,0,1,.81-1.61,49,49,0,0,0,3.35-7.64c0-.27-.14-.27-.27-.27a3.2,3.2,0,0,1-.94-.4c-.27-.13-.4-.27-.4-.53s0-.27.27-.54a18.77,18.77,0,0,0,3.75-6.43,8.21,8.21,0,0,0,.53-2.15c0-3.08-2.41-7.77-5.22-7.77h-.81a2.19,2.19,0,0,0-1.87.67,9.27,9.27,0,0,1-1.75,1.48c-.53.26-4.42,6.16-4.42,7a1.11,1.11,0,0,1-.53.81c-.27.13-.54.8-.81,1.47-.53,1.34-.94,2.82-1.47,4.16-3,8.17-3.89,13.26-3.89,18.09,0,2.27,0,2.68.94,3.35a4.17,4.17,0,0,0,1.47.8C446.69,582.32,449.78,580.31,450.31,579.64Z"/><path class="cls-5" d="M551.62,502.05c0,2.55-.67,5.76-2.15,10.45-.94,3-1.07,4.29-1.74,5a12.27,12.27,0,0,0-1.88,2.95,5,5,0,0,1-1.34,1.88,16.38,16.38,0,0,0-2.54,3c-1.88,2.81-2.55,2.41-2.55,3.48,0,.53-4.69,6.16-4.82,6.3-.81.27-1.88,2.81-5.36,6.16a39.81,39.81,0,0,0-5,5.5c0,.26-3.62,10.31-4.56,13.66-.4,1.48-.8,5-1.34,7.78a31.07,31.07,0,0,0-.4,4.28c0,1.75.13,3,.27,4.69a20.19,20.19,0,0,0,1.07,4.69c.13.94.54,1.21,1.07,1.21a1.77,1.77,0,0,0,.81-.13c.53,0,3.48-2.68,4.28-4.29a6.16,6.16,0,0,1,1.61-1.61,5.48,5.48,0,0,0,1.48-1.61,52.71,52.71,0,0,1,3.88-6,7.62,7.62,0,0,0,1.21-2.14,5.34,5.34,0,0,1,1.07-2,1.22,1.22,0,0,0,.4-.67,51.71,51.71,0,0,1,2.28-5.76,1,1,0,0,1,.8-.54c.54,0,1.61.54,1.61,1.47a.52.52,0,0,0-.13.41v.4c-1.48,2.95-5.5,11-6.3,12.06l-1.34,2.28a17.11,17.11,0,0,1-2.14,2.94,4.76,4.76,0,0,0-1.34,1.88c0,.27-.67,1.07-4.83,5.23a7.52,7.52,0,0,1-3.88,1.2,7.89,7.89,0,0,1-3.76-1.2c-2.14-1.21-3.21-4.56-4.55-6.7-.27-.41-.54-1.61-.94-2.28a3.64,3.64,0,0,1-.67-2.41c0-3.89.4-5.9.4-6.7,0-.41-.13-.41-.27-.54s-6,8.31-5.89,8.31c-.14.4-.4.53-.54.8l-.8,1.61c-.14.27-5.63,5.63-6.57,6.3-3.21,2-5.22,2.68-6.83,2.68a6.18,6.18,0,0,1-3.35-1.07c-.67-.14-1.74-2.15-2.68-5a11.44,11.44,0,0,1-1.07-4.69c0-.54.13-1.07.13-1.74.27-3,.8-5.23.8-7.51,0-.13.27-.4.27-.67a5.16,5.16,0,0,0,.81-2.28,12.21,12.21,0,0,1,2.27-5.62c1.34-2.95,1.75-3.76,7.64-10.72a10.27,10.27,0,0,1,5.09-3.49,10.46,10.46,0,0,1,6.17-1.87c2.81,0,6,1.74,7,4.69a24.43,24.43,0,0,1,1.07,3.75c0,.8.27,1.2.53,1.2s.54-.26.67-.93l.41-1.61a45.32,45.32,0,0,0,2.68-7.77l.67-2.42a2.69,2.69,0,0,0,.8-1.87,14,14,0,0,1,1.07-3.49c.81-2.14,1.48-4.29,2.28-6.43,1.47-4,5-13.13,5.9-13.13.13,0,.26-.4.26-.81,0-1.33,1.75-4,2.28-4,.14,0,.14-.13.14-.26,0-1.21,4.42-7.37,5.89-8.31a5.91,5.91,0,0,0,1.48-1.07c0-.54,3.48-2.95,5.36-3.09.67,0,1.34-.13,2-.13C550,495.62,551.62,497.09,551.62,502.05ZM510.88,551.9a6.25,6.25,0,0,0-.14-1.74l-.26-1.74c0-.27-.41-.54-.81-1.21a3.4,3.4,0,0,1-.53-1.34,10.89,10.89,0,0,1-1.08-.94,3.79,3.79,0,0,0-2.27-.93c-1.61,0-1.88.67-3.22,1.87a9.69,9.69,0,0,0-1.88,2.28,19.43,19.43,0,0,0-1.74,2c-.53.94-1.74,2.68-1.74,2.81,0,.54-.54,1.08-.94,1.48-1.61,1.61-3.88,7.37-4.42,10.32,0,.13-1.88,7.23-1.74,7.23v3a25.56,25.56,0,0,0-.4,4.42c0,1.34.13,2.41.67,3a1.18,1.18,0,0,0,.93.4c.41,0,.67-.13,1.08-.13,4.15,0,12.19-11.26,14.87-16.08a3.6,3.6,0,0,1-1.74.53c-.4,0-.54-.13-.54-.4s.4-.8,1.21-1.07a3,3,0,0,0,1.34-1.21l.94-1.6C509.67,560.88,510.88,555.25,510.88,551.9Zm38.19-49.31a4.79,4.79,0,0,0-1.61-3.89c-.67-.53-1.34-1.2-1.61-1.2-1.07,0-3.88,3.35-5.36,5.89l-1.61,2.68c-.26.27-.93,1.61-2.67,5.9l-1.88,4.69c-1.07,2.81-3.49,8.84-4.16,11.39l-1.74,6.57c-.67,2.27-1.61,4.15-1.61,4.55s.14.67.41.67c.67,0,2.41-1.74,4.42-4.82.4-.67,2-2,2-2.15s5.89-8.3,5.89-8.17a11.82,11.82,0,0,1,3-3.75c1.61-1.34,4.29-7.91,4.29-8.71a6,6,0,0,1,.54-2.15A23.67,23.67,0,0,0,549.07,502.59Z"/></g></svg>